<svg xmlns="http://www.w3.org/2000/svg" xmlns:xlink="http://www.w3.org/1999/xlink" width="500" zoomAndPan="magnify" viewBox="0 0 375 108.749999" height="145" preserveAspectRatio="xMidYMid meet" version="1.0"><defs><g/><clipPath id="1688fc2306"><path d="M 0.429688 0 L 192.738281 0 L 192.738281 108.5 L 0.429688 108.5 Z M 0.429688 0 " clip-rule="nonzero"/></clipPath></defs><g clip-path="url(#1688fc2306)"><path fill="#ffffff" d="M 183.625 69.074219 C 184.132812 69.480469 184.636719 69.816406 185.066406 70.222656 C 185.785156 70.894531 186.488281 71.589844 187.15625 72.316406 C 187.898438 73.117188 188.601562 73.945312 189.308594 74.769531 C 189.519531 75.023438 189.699219 75.359375 189.546875 75.660156 C 189.398438 75.949219 189.0625 76.066406 188.710938 76.054688 C 188.632812 76.046875 188.554688 76.046875 188.476562 76.054688 C 188.234375 76.085938 187.90625 75.925781 187.796875 76.234375 C 187.757812 76.34375 188.015625 76.554688 188.144531 76.71875 C 188.78125 77.515625 189.429688 78.308594 190.066406 79.113281 C 190.300781 79.402344 190.316406 79.738281 190.054688 80.003906 C 189.695312 80.371094 189.628906 80.808594 189.566406 81.285156 C 189.46875 82.058594 189.277344 82.824219 189.121094 83.59375 C 189.109375 83.644531 189.113281 83.695312 189.109375 83.738281 C 189.058594 84.527344 188.964844 85.304688 188.960938 86.089844 C 188.941406 88.996094 188.960938 91.910156 188.945312 94.816406 C 188.945312 95.132812 189.082031 95.472656 188.8125 95.777344 C 188.753906 95.839844 188.871094 96.105469 188.960938 96.238281 C 189.675781 97.316406 189.976562 98.570312 190.5625 99.707031 C 190.992188 100.535156 191.414062 101.382812 191.832031 102.21875 C 192.015625 102.585938 192.171875 102.964844 192.382812 103.3125 C 192.636719 103.71875 192.519531 104.15625 192.519531 104.578125 C 192.519531 104.828125 191.960938 105.078125 191.664062 105.015625 C 191.425781 104.964844 191.1875 104.898438 190.941406 104.875 C 190.125 104.78125 189.300781 104.789062 188.503906 104.5625 C 188.40625 104.539062 188.296875 104.558594 188.195312 104.558594 C 187.339844 104.570312 186.507812 104.421875 185.675781 104.253906 C 185.085938 104.136719 184.472656 104.15625 183.875 104.082031 C 183.316406 104.011719 182.761719 103.886719 182.203125 103.804688 C 181.710938 103.734375 181.21875 103.679688 180.722656 103.617188 C 179.484375 103.460938 178.25 103.351562 177.027344 103.132812 C 175.902344 102.933594 174.773438 102.792969 173.640625 102.664062 C 172.675781 102.554688 171.703125 102.445312 170.738281 102.347656 C 169.507812 102.226562 168.28125 102.136719 167.058594 102.023438 C 166.324219 101.960938 165.578125 102.019531 164.867188 101.878906 C 163.898438 101.683594 162.925781 101.859375 161.972656 101.734375 C 159.710938 101.4375 157.445312 101.644531 155.1875 101.601562 C 152.902344 101.5625 150.617188 101.484375 148.339844 101.632812 C 146.851562 101.730469 145.359375 101.59375 143.890625 101.78125 C 142.484375 101.960938 141.066406 101.753906 139.675781 101.929688 C 138.265625 102.109375 136.851562 101.921875 135.460938 102.097656 C 134.488281 102.21875 133.515625 102.089844 132.5625 102.246094 C 131.644531 102.390625 130.714844 102.25 129.828125 102.40625 C 128.90625 102.566406 127.988281 102.40625 127.09375 102.554688 C 126.28125 102.6875 125.472656 102.613281 124.667969 102.703125 C 123.386719 102.84375 122.109375 102.964844 120.824219 103.011719 C 119.75 103.050781 118.675781 103.164062 117.605469 103.320312 C 116.589844 103.46875 115.566406 103.550781 114.542969 103.640625 C 113.441406 103.734375 112.339844 103.835938 111.246094 103.964844 C 109.953125 104.113281 108.644531 104.214844 107.371094 104.550781 C 106.226562 104.859375 105.09375 105.195312 104.113281 105.890625 C 103.070312 106.632812 101.863281 106.980469 100.671875 107.347656 C 99.371094 107.746094 98.019531 107.742188 96.679688 107.648438 C 95.726562 107.585938 94.789062 107.308594 93.835938 107.210938 C 92.78125 107.109375 91.800781 106.765625 90.804688 106.445312 C 89.898438 106.15625 89.078125 105.699219 88.273438 105.234375 C 87.832031 104.984375 87.386719 104.796875 86.929688 104.730469 C 85.730469 104.5625 84.5625 104.304688 83.375 104.101562 C 82.417969 103.933594 81.4375 103.90625 80.472656 103.765625 C 79.277344 103.589844 78.066406 103.566406 76.867188 103.421875 C 75.871094 103.308594 74.878906 103.390625 73.894531 103.300781 C 70.753906 103.015625 67.601562 103.054688 64.464844 103.191406 C 61.371094 103.320312 58.273438 103.164062 55.191406 103.339844 C 54.046875 103.402344 52.886719 103.320312 51.753906 103.488281 C 50.757812 103.636719 49.757812 103.488281 48.78125 103.640625 C 47.835938 103.789062 46.886719 103.648438 45.96875 103.796875 C 45.074219 103.945312 44.179688 103.804688 43.308594 103.953125 C 42.464844 104.09375 41.625 103.964844 40.804688 104.105469 C 40.015625 104.242188 39.222656 104.121094 38.457031 104.261719 C 37.714844 104.394531 36.980469 104.304688 36.261719 104.402344 C 35.0625 104.570312 33.855469 104.601562 32.652344 104.707031 C 31.652344 104.789062 30.660156 104.90625 29.664062 105.015625 C 28.769531 105.113281 27.875 105.195312 26.992188 105.332031 C 26.078125 105.480469 25.164062 105.574219 24.246094 105.652344 C 23.1875 105.738281 22.144531 105.96875 21.089844 106.097656 C 20.363281 106.1875 19.617188 106.136719 18.902344 106.277344 C 18.21875 106.414062 17.523438 106.335938 16.84375 106.546875 C 16.328125 106.710938 15.75 106.675781 15.203125 106.722656 C 14.550781 106.78125 13.882812 106.753906 13.246094 106.894531 C 12.375 107.082031 11.480469 107.058594 10.625 107.335938 C 10.207031 107.46875 9.738281 107.4375 9.292969 107.507812 C 8.320312 107.65625 7.347656 107.832031 6.371094 107.972656 C 5.847656 108.050781 5.320312 108.0625 4.800781 108.140625 C 4.238281 108.222656 3.691406 108.382812 3.140625 108.4375 C 2.546875 108.488281 1.941406 108.5 1.351562 108.429688 C 0.746094 108.359375 0.566406 107.796875 0.878906 107.152344 C 1.09375 106.722656 1.3125 106.296875 1.535156 105.871094 C 2.207031 104.617188 2.863281 103.351562 3.558594 102.117188 C 4.09375 101.167969 4.601562 100.207031 4.832031 99.140625 C 4.902344 98.796875 5.023438 98.410156 4.929688 98.101562 C 4.703125 97.394531 4.882812 96.675781 4.789062 95.980469 C 4.59375 94.5 4.773438 93 4.605469 91.53125 C 4.40625 89.777344 4.566406 88.039062 4.476562 86.292969 C 4.433594 85.429688 4.492188 84.570312 4.363281 83.703125 C 4.238281 82.890625 4.421875 82.03125 4.492188 81.203125 C 4.503906 81.074219 4.652344 80.964844 4.742188 80.839844 C 5.417969 79.898438 6.101562 78.964844 6.769531 78.019531 C 6.808594 77.96875 6.761719 77.773438 6.738281 77.765625 C 6.46875 77.730469 6.304688 77.585938 6.351562 77.308594 C 6.390625 77.046875 6.410156 76.742188 6.558594 76.542969 C 7.148438 75.746094 7.800781 74.976562 8.417969 74.191406 C 9.292969 73.078125 10.097656 71.898438 11.03125 70.839844 C 11.996094 69.753906 12.679688 68.449219 13.742188 67.453125 C 13.875 67.324219 13.875 67.195312 13.636719 67.148438 C 13.109375 67.050781 12.582031 66.9375 12.054688 66.839844 C 11.578125 66.757812 11.101562 66.679688 10.671875 66.421875 C 10.15625 66.105469 10.105469 65.828125 10.507812 65.398438 C 11.261719 64.589844 11.988281 63.765625 12.773438 62.988281 C 13.792969 61.976562 14.875 61.015625 15.890625 60.003906 C 16.796875 59.09375 17.640625 58.128906 18.542969 57.214844 C 19.203125 56.542969 19.925781 55.925781 20.613281 55.273438 C 20.710938 55.183594 20.75 55.03125 20.8125 54.902344 C 20.691406 54.882812 20.574219 54.847656 20.453125 54.835938 C 19.300781 54.734375 18.148438 54.675781 17.003906 54.515625 C 15.472656 54.300781 13.941406 54.039062 12.421875 53.734375 C 11.636719 53.582031 10.855469 53.46875 10.058594 53.417969 C 9.691406 53.394531 9.28125 53.238281 8.996094 53.011719 C 8.660156 52.75 8.777344 52.273438 8.886719 51.9375 C 9.191406 51.003906 9.570312 50.09375 9.9375 49.179688 C 10.457031 47.871094 11.140625 46.648438 11.964844 45.5 C 12.382812 44.914062 12.8125 44.335938 13.285156 43.785156 C 14.164062 42.769531 15.066406 41.769531 15.972656 40.769531 C 16.734375 39.941406 17.511719 39.121094 18.285156 38.304688 C 19.328125 37.203125 20.355469 36.09375 21.425781 35.011719 C 25.621094 30.746094 29.820312 26.488281 34.027344 22.242188 C 35.058594 21.203125 36.105469 20.171875 37.214844 19.21875 C 38.515625 18.09375 39.886719 17.042969 41.230469 15.960938 C 42.492188 14.949219 43.742188 13.910156 45.039062 12.9375 C 46.078125 12.164062 47.191406 11.480469 48.253906 10.742188 C 49.148438 10.117188 50.015625 10.265625 50.917969 10.703125 C 52.082031 11.269531 53.261719 11.804688 54.429688 12.359375 C 55.710938 12.964844 57.011719 13.53125 58.261719 14.199219 C 58.671875 14.425781 58.742188 14.269531 58.917969 13.996094 C 59.859375 12.488281 60.808594 10.984375 61.769531 9.492188 C 62.671875 8.085938 63.402344 6.589844 64.097656 5.082031 C 64.644531 3.898438 65.230469 2.730469 65.355469 1.398438 C 65.378906 1.121094 65.515625 0.84375 65.625 0.578125 C 65.835938 0.0898438 66.28125 -0.0117188 66.679688 0.335938 C 67.484375 1.023438 68.308594 1.699219 69.082031 2.433594 C 70.070312 3.375 71.089844 4.316406 71.976562 5.355469 C 73.265625 6.847656 74.441406 8.425781 75.679688 9.96875 C 76.417969 10.890625 77.214844 11.757812 77.925781 12.699219 C 78.972656 14.109375 80.0625 15.484375 81.097656 16.90625 C 82.257812 18.496094 83.394531 20.101562 84.476562 21.746094 C 85.28125 22.964844 86.042969 24.207031 86.789062 25.457031 C 87.683594 26.953125 88.589844 28.441406 89.421875 29.972656 C 90.210938 31.429688 90.914062 32.9375 91.640625 34.425781 C 92.765625 36.738281 93.699219 39.121094 94.640625 41.519531 C 95.464844 43.625 96.101562 45.789062 96.90625 47.902344 C 97.164062 48.582031 97.234375 49.320312 97.414062 50.03125 C 97.453125 50.191406 97.5625 50.332031 97.640625 50.480469 C 97.71875 50.359375 97.808594 50.242188 97.878906 50.121094 C 98.058594 49.777344 98.210938 49.425781 98.417969 49.097656 C 99.214844 47.8125 99.988281 46.511719 100.84375 45.273438 C 101.746094 43.972656 102.738281 42.730469 103.695312 41.46875 C 104.6875 40.152344 105.769531 38.910156 106.941406 37.75 C 108.621094 36.085938 110.261719 34.394531 111.953125 32.742188 C 113.332031 31.410156 114.746094 30.113281 116.171875 28.832031 C 117.277344 27.832031 118.398438 26.855469 119.554688 25.914062 C 120.847656 24.871094 122.195312 23.890625 123.507812 22.871094 C 125.464844 21.363281 127.621094 20.167969 129.6875 18.828125 C 132.453125 17.035156 135.429688 15.648438 138.355469 14.179688 C 139.792969 13.460938 141.273438 12.835938 142.726562 12.144531 C 143.339844 11.855469 143.929688 11.527344 144.511719 11.183594 C 144.78125 11.023438 144.980469 11.054688 145.261719 11.183594 C 146.164062 11.589844 146.96875 12.113281 147.742188 12.730469 C 149.015625 13.757812 150.335938 14.730469 151.640625 15.714844 C 152.453125 16.328125 153.277344 16.914062 154.074219 17.539062 C 155.117188 18.351562 156.152344 19.179688 157.171875 20.019531 C 157.679688 20.4375 158.160156 20.886719 158.652344 21.339844 C 159.511719 22.144531 160.375 22.949219 161.226562 23.761719 C 162.511719 24.984375 163.804688 26.203125 165.0625 27.460938 C 165.878906 28.273438 166.664062 29.121094 167.429688 29.984375 C 168.351562 31.023438 169.246094 32.078125 170.128906 33.148438 C 171.222656 34.484375 172.316406 35.816406 173.371094 37.175781 C 174.960938 39.210938 176.652344 41.171875 178.113281 43.308594 C 179.195312 44.894531 180.375 46.410156 181.390625 48.03125 C 182.15625 49.25 182.742188 50.585938 183.386719 51.871094 C 183.617188 52.335938 183.121094 53.085938 182.574219 53.128906 C 181.820312 53.195312 181.054688 53.199219 180.308594 53.296875 C 179.410156 53.414062 178.519531 53.605469 177.617188 53.753906 C 177.175781 53.824219 176.722656 53.851562 176.285156 53.914062 C 175.488281 54.03125 174.695312 54.230469 173.90625 54.335938 C 173.164062 54.429688 172.429688 54.546875 171.703125 54.695312 C 170.585938 54.921875 169.464844 55.171875 168.351562 55.429688 C 167.191406 55.695312 166.035156 55.964844 164.882812 56.253906 C 163.472656 56.609375 162.054688 56.9375 160.671875 57.367188 C 158.863281 57.9375 157.074219 58.566406 155.289062 59.21875 C 153.847656 59.746094 152.441406 60.34375 151.023438 60.9375 C 146.5 62.824219 142.136719 65.0625 137.789062 67.324219 C 135.90625 68.300781 134.070312 69.378906 132.214844 70.410156 C 131.097656 71.035156 129.96875 71.640625 128.875 72.304688 C 127.503906 73.136719 126.121094 73.960938 124.808594 74.882812 C 123.289062 75.945312 121.828125 77.097656 120.355469 78.230469 C 119.132812 79.171875 117.914062 80.125 116.71875 81.097656 C 115.933594 81.734375 115.199219 82.425781 114.417969 83.070312 C 113.710938 83.65625 112.972656 84.203125 112.25 84.785156 C 111.839844 85.117188 111.4375 85.472656 111.046875 85.828125 C 110.273438 86.535156 109.507812 87.257812 108.742188 87.972656 C 107.152344 89.460938 105.535156 90.925781 103.980469 92.445312 C 102.839844 93.558594 101.773438 94.746094 100.671875 95.898438 C 100.621094 95.949219 100.605469 96.039062 100.574219 96.117188 C 100.664062 96.089844 100.761719 96.078125 100.839844 96.035156 C 101.894531 95.390625 103.039062 94.898438 104.019531 94.113281 C 105.023438 93.308594 106.070312 92.566406 107.101562 91.792969 C 108.167969 90.988281 109.230469 90.175781 110.300781 89.371094 C 111.128906 88.746094 111.960938 88.113281 112.796875 87.503906 C 113.730469 86.8125 114.664062 86.125 115.609375 85.464844 C 117.238281 84.332031 118.875 83.210938 120.527344 82.109375 C 121.210938 81.652344 121.949219 81.285156 122.65625 80.867188 C 123.347656 80.460938 123.984375 79.925781 124.722656 79.65625 C 125.726562 79.289062 126.636719 78.757812 127.589844 78.296875 C 129.898438 77.167969 132.253906 76.164062 134.65625 75.242188 C 137.300781 74.230469 139.960938 73.257812 142.667969 72.414062 C 144.582031 71.820312 146.484375 71.203125 148.429688 70.71875 C 149.652344 70.414062 150.855469 70.046875 152.09375 69.796875 C 152.949219 69.625 153.785156 69.359375 154.640625 69.183594 C 155.820312 68.945312 157.007812 68.761719 158.195312 68.554688 C 159.378906 68.347656 160.5625 68.109375 161.753906 67.941406 C 162.769531 67.792969 163.792969 67.742188 164.808594 67.613281 C 165.867188 67.476562 166.910156 67.289062 167.964844 67.15625 C 168.664062 67.070312 169.378906 67.105469 170.074219 66.976562 C 170.835938 66.839844 171.625 66.96875 172.367188 66.683594 C 172.484375 66.640625 172.625 66.683594 172.753906 66.679688 C 173.640625 66.628906 174.53125 66.582031 175.410156 66.523438 C 175.90625 66.492188 176.410156 66.421875 176.90625 66.371094 C 177.398438 66.316406 177.902344 66.265625 178.398438 66.214844 C 178.449219 66.207031 178.527344 66.234375 178.550781 66.207031 C 179.003906 65.671875 179.601562 65.945312 180.140625 65.914062 C 180.785156 65.875 181.441406 65.925781 182.085938 65.898438 C 183.050781 65.867188 184.015625 65.800781 184.976562 65.746094 C 185.046875 65.738281 185.109375 65.707031 185.183594 65.679688 C 185.15625 65.589844 185.15625 65.472656 185.097656 65.417969 C 183.894531 64.257812 182.699219 63.082031 181.472656 61.949219 C 180.851562 61.371094 180.179688 60.828125 179.511719 60.292969 C 178.65625 59.617188 177.785156 58.953125 176.910156 58.308594 C 176.023438 57.652344 175.117188 57.015625 174.207031 56.382812 C 173.75 56.0625 173.269531 55.765625 172.8125 55.441406 C 172.605469 55.300781 172.457031 55.070312 172.664062 54.867188 C 172.796875 54.734375 173.09375 54.648438 173.273438 54.703125 C 173.617188 54.796875 173.949219 54.972656 174.238281 55.171875 C 175.816406 56.261719 177.394531 57.347656 178.945312 58.476562 C 180.226562 59.40625 181.460938 60.390625 182.601562 61.5 C 183.613281 62.484375 184.652344 63.4375 185.664062 64.425781 C 185.933594 64.679688 186.167969 64.992188 186.378906 65.292969 C 186.597656 65.609375 186.40625 66.136719 186.089844 66.371094 C 185.695312 66.660156 185.234375 66.75 184.796875 66.808594 C 183.894531 66.929688 182.972656 66.9375 182.058594 66.980469 C 181.878906 66.996094 181.691406 66.96875 181.527344 67.007812 C 181.390625 67.039062 181.28125 67.144531 181.160156 67.21875 C 181.253906 67.296875 181.351562 67.375 181.457031 67.453125 C 182.175781 68 182.882812 68.515625 183.625 69.074219 M 162.730469 55.636719 C 162.808594 55.636719 162.886719 55.65625 162.964844 55.636719 C 164.160156 55.328125 165.34375 54.996094 166.546875 54.707031 C 167.566406 54.464844 168.59375 54.257812 169.617188 54.042969 C 170.621094 53.839844 171.632812 53.644531 172.644531 53.457031 C 173.34375 53.328125 174.054688 53.226562 174.753906 53.101562 C 175.554688 52.96875 176.34375 52.792969 177.144531 52.683594 C 177.792969 52.59375 178.457031 52.621094 179.097656 52.511719 C 180.011719 52.347656 180.921875 52.207031 181.855469 52.207031 C 182.351562 52.207031 182.382812 52.167969 182.136719 51.699219 C 181.546875 50.566406 180.972656 49.425781 180.316406 48.328125 C 179.710938 47.324219 179.027344 46.363281 178.339844 45.410156 C 177.542969 44.300781 176.710938 43.226562 175.882812 42.144531 C 175.007812 40.996094 174.125 39.855469 173.222656 38.730469 C 172.675781 38.039062 172.078125 37.390625 171.53125 36.707031 C 170.746094 35.738281 169.992188 34.746094 169.207031 33.773438 C 168.828125 33.304688 168.394531 32.867188 168.003906 32.402344 C 167.101562 31.351562 166.257812 30.238281 165.292969 29.25 C 163.5625 27.480469 161.765625 25.773438 159.96875 24.066406 C 159 23.136719 157.980469 22.246094 156.964844 21.363281 C 155.980469 20.507812 154.988281 19.644531 153.964844 18.832031 C 153.019531 18.085938 152.015625 17.402344 151.050781 16.675781 C 150.15625 16.003906 149.273438 15.320312 148.390625 14.636719 C 147.484375 13.941406 146.59375 13.226562 145.667969 12.558594 C 145.332031 12.3125 144.96875 12.234375 144.503906 12.46875 C 142.28125 13.554688 140.015625 14.546875 137.804688 15.644531 C 136.03125 16.511719 134.296875 17.453125 132.570312 18.414062 C 131.109375 19.226562 129.648438 20.050781 128.269531 20.992188 C 126.050781 22.5 123.738281 23.878906 121.710938 25.648438 C 120.65625 26.570312 119.53125 27.402344 118.460938 28.304688 C 117.527344 29.089844 116.621094 29.902344 115.726562 30.726562 C 114.179688 32.152344 112.636719 33.566406 111.128906 35.03125 C 110.191406 35.9375 109.359375 36.964844 108.421875 37.871094 C 106.714844 39.515625 105.171875 41.292969 103.753906 43.1875 C 103.089844 44.078125 102.429688 44.964844 101.808594 45.886719 C 100.878906 47.257812 99.949219 48.636719 99.085938 50.054688 C 98.484375 51.046875 97.972656 52.105469 97.917969 53.304688 C 97.878906 54.242188 97.8125 55.183594 97.789062 56.117188 C 97.632812 60.691406 97.929688 65.269531 97.613281 69.84375 C 97.550781 70.800781 97.613281 71.769531 97.730469 72.742188 C 97.898438 74.132812 97.679688 75.550781 97.890625 76.960938 C 98.050781 78.011719 97.878906 79.09375 98.039062 80.171875 C 98.207031 81.273438 98.15625 82.414062 98.1875 83.527344 C 98.296875 87.425781 98.167969 91.328125 98.378906 95.222656 C 98.386719 95.375 98.347656 95.542969 98.386719 95.683594 C 98.449219 95.90625 98.574219 96.105469 98.667969 96.308594 C 98.84375 96.226562 99.050781 96.175781 99.179688 96.046875 C 99.964844 95.234375 100.722656 94.402344 101.496094 93.585938 C 102.320312 92.707031 103.136719 91.820312 103.972656 90.957031 C 104.339844 90.574219 104.777344 90.261719 105.171875 89.90625 C 105.960938 89.179688 106.761719 88.457031 107.527344 87.703125 C 108.863281 86.382812 110.269531 85.136719 111.734375 83.953125 C 112.789062 83.097656 113.800781 82.1875 114.851562 81.316406 C 115.925781 80.421875 117.027344 79.550781 118.113281 78.667969 C 118.96875 77.972656 119.789062 77.226562 120.683594 76.589844 C 122.675781 75.164062 124.578125 73.597656 126.71875 72.386719 C 128.304688 71.492188 129.808594 70.472656 131.40625 69.605469 C 132.738281 68.875 134.03125 68.089844 135.402344 67.425781 C 136.832031 66.730469 138.183594 65.875 139.605469 65.171875 C 142.40625 63.785156 145.222656 62.457031 148.035156 61.113281 C 148.6875 60.804688 149.316406 60.449219 149.988281 60.183594 C 151.390625 59.625 152.832031 59.152344 154.222656 58.566406 C 156.300781 57.683594 158.453125 56.988281 160.59375 56.285156 C 161.238281 56.042969 161.90625 55.839844 162.730469 55.636719 M 84.902344 102.851562 C 85.210938 102.851562 85.609375 102.972656 85.816406 102.824219 C 86.242188 102.519531 86.464844 102.824219 86.734375 102.984375 C 87.339844 103.332031 87.851562 103.855469 88.5625 104.027344 C 88.699219 104.0625 88.839844 104.152344 88.9375 104.25 C 89.601562 104.90625 90.464844 105.175781 91.300781 105.5 C 92.960938 106.128906 94.710938 106.375 96.457031 106.5625 C 97.554688 106.675781 98.703125 106.734375 99.808594 106.433594 C 100.128906 106.34375 100.445312 106.1875 100.773438 106.128906 C 101.964844 105.917969 103 105.335938 104.003906 104.730469 C 104.746094 104.285156 105.382812 103.667969 106.085938 103.160156 C 106.414062 102.921875 106.765625 102.714844 107.210938 102.683594 C 108.027344 102.625 108.839844 102.488281 109.648438 102.386719 C 110.042969 102.335938 110.441406 102.300781 110.828125 102.226562 C 111.59375 102.082031 112.351562 101.894531 113.125 101.769531 C 114.175781 101.59375 115.222656 101.4375 116.28125 101.296875 C 117.507812 101.128906 118.746094 100.976562 119.972656 100.832031 C 121.015625 100.710938 122.066406 100.570312 123.113281 100.53125 C 124.480469 100.484375 125.832031 100.363281 127.1875 100.214844 C 127.917969 100.136719 128.652344 100.136719 129.382812 100.078125 C 130.882812 99.964844 132.394531 100.015625 133.910156 99.910156 C 136.398438 99.746094 138.898438 99.984375 141.394531 99.765625 C 143.640625 99.570312 145.914062 99.71875 148.179688 99.617188 C 151.441406 99.46875 154.710938 99.542969 157.980469 99.589844 C 161.226562 99.636719 164.476562 99.414062 167.726562 99.726562 C 169.148438 99.859375 170.589844 99.636719 172.019531 99.867188 C 172.863281 100.003906 173.738281 99.917969 174.601562 100.015625 C 175.617188 100.132812 176.640625 100.183594 177.65625 100.34375 C 178.667969 100.503906 179.699219 100.632812 180.714844 100.652344 C 182.285156 100.683594 183.847656 100.78125 185.414062 100.960938 C 186.179688 101.046875 186.953125 101.050781 187.699219 101.285156 C 187.886719 101.34375 188.058594 101.296875 188.019531 101.019531 C 187.960938 100.652344 187.878906 100.285156 187.871094 99.917969 C 187.847656 99.085938 187.847656 98.257812 187.871094 97.425781 C 187.886719 96.96875 187.78125 96.59375 187.449219 96.273438 C 187.191406 96.015625 187.214844 95.75 187.5625 95.542969 C 187.839844 95.382812 187.859375 95.183594 187.867188 94.917969 C 187.949219 91.59375 187.679688 88.257812 188.019531 84.933594 C 188.066406 84.511719 188.046875 84.101562 188.148438 83.664062 C 188.394531 82.632812 188.445312 81.554688 188.671875 80.519531 C 188.726562 80.253906 188.703125 80.171875 188.515625 80.101562 C 188.316406 80.023438 188.097656 79.972656 187.878906 79.9375 C 187.066406 79.828125 186.257812 79.726562 185.4375 79.621094 C 184.125 79.460938 182.820312 79.253906 181.507812 79.171875 C 180.40625 79.101562 179.3125 78.964844 178.210938 78.863281 C 176.941406 78.738281 175.664062 78.683594 174.386719 78.703125 C 172.410156 78.734375 170.429688 78.519531 168.460938 78.835938 C 167.605469 78.980469 166.734375 79.054688 165.867188 79.152344 C 164.875 79.261719 163.878906 79.363281 162.878906 79.46875 C 162.359375 79.519531 161.832031 79.550781 161.316406 79.636719 C 160.542969 79.765625 159.785156 79.953125 159.011719 80.085938 C 158.277344 80.214844 157.511719 80.210938 156.816406 80.429688 C 156.03125 80.679688 155.21875 80.699219 154.433594 80.859375 C 153.683594 81.015625 152.910156 81.054688 152.15625 81.1875 C 151.171875 81.367188 150.199219 81.601562 149.222656 81.808594 C 148.621094 81.929688 148.011719 82.007812 147.425781 82.179688 C 147.058594 82.289062 146.761719 82.378906 146.460938 82.066406 C 146.390625 81.988281 146.222656 81.949219 146.117188 81.976562 C 145.648438 82.089844 145.191406 82.238281 144.730469 82.367188 C 143.382812 82.753906 142.039062 83.148438 140.691406 83.519531 C 139.039062 83.972656 137.378906 84.410156 135.71875 84.847656 C 134.644531 85.132812 133.5625 85.410156 132.492188 85.707031 C 131.238281 86.054688 129.988281 86.425781 128.742188 86.792969 C 127.699219 87.101562 126.660156 87.414062 125.625 87.726562 C 123.570312 88.347656 121.511719 88.941406 119.464844 89.589844 C 117.21875 90.300781 114.972656 91.007812 112.753906 91.800781 C 110.925781 92.449219 109.121094 93.183594 107.339844 93.945312 C 105.363281 94.789062 103.496094 95.851562 101.664062 96.96875 C 101.121094 97.296875 100.554688 97.585938 100.058594 97.972656 C 99.507812 98.40625 98.714844 97.863281 98.246094 98.488281 C 97.808594 98.179688 97.226562 98.460938 96.769531 98.09375 C 96.28125 97.703125 95.726562 97.375 95.160156 97.101562 C 94.519531 96.792969 93.816406 96.601562 93.160156 96.304688 C 92.066406 95.8125 90.992188 95.28125 89.898438 94.777344 C 88.199219 93.996094 86.492188 93.222656 84.785156 92.464844 C 83.886719 92.0625 82.984375 91.683594 82.070312 91.324219 C 81.019531 90.910156 79.957031 90.539062 78.902344 90.144531 C 77.308594 89.550781 75.71875 88.933594 74.113281 88.367188 C 72.574219 87.820312 71.023438 87.308594 69.46875 86.808594 C 67.820312 86.273438 66.179688 85.710938 64.503906 85.261719 C 62.941406 84.839844 61.382812 84.398438 59.804688 84.023438 C 59.34375 83.914062 58.742188 83.496094 58.28125 84.140625 C 58.242188 84.191406 58.082031 84.164062 57.984375 84.152344 C 57.445312 84.089844 56.898438 84.042969 56.363281 83.941406 C 55.234375 83.71875 54.121094 83.449219 53.003906 83.222656 C 52.328125 83.089844 51.636719 83.019531 50.957031 82.894531 C 49.894531 82.703125 48.839844 82.496094 47.78125 82.285156 C 47.085938 82.148438 46.398438 81.976562 45.703125 81.859375 C 44.925781 81.722656 44.140625 81.613281 43.355469 81.511719 C 42.808594 81.441406 42.246094 81.445312 41.707031 81.34375 C 40.871094 81.175781 40.039062 81.027344 39.191406 81.039062 C 39.085938 81.039062 38.976562 81.058594 38.882812 81.039062 C 38.023438 80.847656 37.164062 80.71875 36.289062 80.730469 C 36.082031 80.730469 35.855469 80.78125 35.667969 80.726562 C 34.664062 80.394531 33.601562 80.730469 32.605469 80.421875 C 29.492188 80.519531 26.367188 80.261719 23.253906 80.5625 C 21.78125 80.707031 20.285156 80.460938 18.804688 80.71875 C 18.109375 80.839844 17.394531 80.789062 16.6875 80.847656 C 15.355469 80.957031 14.023438 80.996094 12.699219 81.1875 C 11.785156 81.324219 10.851562 81.34375 9.949219 81.515625 C 8.644531 81.773438 7.347656 82.128906 6.054688 82.4375 C 5.449219 82.582031 5.4375 82.574219 5.445312 83.128906 C 5.464844 84.328125 5.457031 85.523438 5.574219 86.730469 C 5.753906 88.695312 5.464844 90.6875 5.734375 92.664062 C 5.882812 93.746094 5.773438 94.847656 5.867188 95.949219 C 5.996094 97.40625 6.003906 98.882812 6.203125 100.335938 C 6.320312 101.1875 6.34375 102.058594 6.359375 102.921875 C 6.363281 103.273438 6.488281 103.371094 6.796875 103.320312 C 6.917969 103.300781 7.035156 103.269531 7.148438 103.242188 C 8.03125 103.0625 8.914062 102.855469 9.808594 102.707031 C 10.585938 102.574219 11.382812 102.519531 12.167969 102.386719 C 13.230469 102.207031 14.273438 101.941406 15.335938 101.78125 C 16.589844 101.585938 17.851562 101.453125 19.109375 101.308594 C 20.152344 101.195312 21.199219 101.046875 22.25 101.007812 C 23.460938 100.960938 24.65625 100.828125 25.855469 100.699219 C 26.710938 100.609375 27.570312 100.628906 28.433594 100.554688 C 30.277344 100.394531 32.121094 100.582031 33.976562 100.402344 C 36.070312 100.203125 38.179688 100.414062 40.289062 100.253906 C 43.085938 100.039062 45.898438 100.285156 48.710938 100.105469 C 50.59375 99.984375 52.5 99.949219 54.40625 100.203125 C 55.640625 100.363281 56.898438 100.207031 58.160156 100.34375 C 59.511719 100.484375 60.875 100.5 62.234375 100.679688 C 63.109375 100.792969 64.003906 100.792969 64.890625 100.847656 C 64.992188 100.851562 65.101562 100.828125 65.199219 100.851562 C 66.105469 101.050781 67.019531 101.175781 67.949219 101.160156 C 68.078125 101.160156 68.246094 101.109375 68.335938 101.167969 C 68.6875 101.40625 69.074219 101.277344 69.441406 101.316406 C 69.808594 101.363281 70.175781 101.4375 70.542969 101.464844 C 71.378906 101.527344 72.222656 101.496094 73.039062 101.652344 C 73.59375 101.753906 74.164062 101.664062 74.679688 101.8125 C 75.113281 101.933594 75.53125 101.894531 75.949219 101.941406 C 76.394531 101.988281 76.835938 102.058594 77.289062 102.097656 C 78.015625 102.160156 78.753906 102.148438 79.476562 102.269531 C 80.390625 102.417969 81.308594 102.488281 82.222656 102.59375 C 82.984375 102.675781 83.738281 102.714844 84.496094 102.726562 C 84.578125 102.703125 84.664062 102.796875 84.902344 102.851562 M 96.808594 51.660156 C 96.808594 51.53125 96.839844 51.390625 96.804688 51.273438 C 96.519531 50.328125 96.230469 49.386719 95.925781 48.445312 C 95.105469 45.886719 94.261719 43.328125 93.230469 40.84375 C 92.492188 39.042969 91.828125 37.214844 91.015625 35.449219 C 90.277344 33.832031 89.414062 32.265625 88.550781 30.707031 C 87.65625 29.097656 86.644531 27.558594 85.769531 25.941406 C 84.566406 23.730469 83.117188 21.679688 81.722656 19.601562 C 80.851562 18.304688 79.867188 17.09375 78.929688 15.851562 C 77.777344 14.328125 76.632812 12.796875 75.460938 11.292969 C 74.730469 10.367188 73.960938 9.472656 73.207031 8.5625 C 72.402344 7.597656 71.597656 6.636719 70.785156 5.667969 C 70.671875 5.535156 70.515625 5.425781 70.40625 5.285156 C 69.410156 3.949219 68.152344 2.886719 66.855469 1.875 C 66.582031 1.664062 66.460938 1.597656 66.453125 2.023438 C 66.453125 2.132812 66.328125 2.234375 66.3125 2.351562 C 66.132812 3.589844 65.503906 4.664062 65.046875 5.796875 C 64.71875 6.625 64.253906 7.398438 63.808594 8.167969 C 62.992188 9.601562 62.1875 11.042969 61.285156 12.421875 C 59.839844 14.636719 58.441406 16.886719 56.8125 18.980469 C 55.90625 20.152344 55.054688 21.378906 54.136719 22.542969 C 53.3125 23.589844 52.390625 24.566406 51.566406 25.609375 C 50.839844 26.539062 50.144531 27.503906 49.5 28.492188 C 48.5625 29.933594 47.707031 31.433594 46.765625 32.886719 C 45.589844 34.695312 44.507812 36.558594 43.535156 38.484375 C 42.703125 40.132812 41.945312 41.820312 41.167969 43.496094 C 41.109375 43.621094 41.132812 43.773438 41.128906 43.914062 C 41.269531 43.902344 41.410156 43.910156 41.546875 43.882812 C 42.136719 43.753906 42.738281 43.632812 43.328125 43.484375 C 44.03125 43.308594 44.746094 43.246094 45.453125 43.15625 C 46.339844 43.039062 47.230469 42.859375 48.128906 42.871094 C 48.914062 42.886719 49.695312 42.960938 50.480469 43.019531 C 51 43.058594 51.527344 43.109375 52.050781 43.179688 C 52.386719 43.226562 52.726562 43.296875 53.054688 43.386719 C 54.285156 43.722656 55.527344 44.023438 56.683594 44.578125 C 57.941406 45.179688 59.226562 45.734375 60.429688 46.433594 C 61.523438 47.078125 62.574219 47.8125 63.597656 48.59375 C 65.03125 49.6875 66.472656 50.769531 67.761719 52.039062 C 69.222656 53.476562 70.683594 54.914062 71.957031 56.523438 C 72.8125 57.613281 73.761719 58.632812 74.640625 59.699219 C 75.503906 60.738281 76.328125 61.808594 77.179688 62.851562 C 77.6875 63.476562 78.222656 64.074219 78.710938 64.707031 C 79.664062 65.945312 80.582031 67.199219 81.523438 68.445312 C 82.507812 69.753906 83.554688 71.015625 84.476562 72.363281 C 85.988281 74.578125 87.449219 76.832031 88.867188 79.109375 C 89.914062 80.789062 90.824219 82.5625 91.871094 84.242188 C 93.058594 86.128906 94.085938 88.09375 95.109375 90.066406 C 95.785156 91.367188 96.628906 92.59375 96.988281 94.042969 C 97.007812 94.125 97.132812 94.191406 97.203125 94.261719 C 97.226562 94.171875 97.285156 94.085938 97.285156 93.996094 C 97.207031 91.890625 97.375 89.785156 97.164062 87.671875 C 96.976562 85.757812 97.242188 83.816406 96.988281 81.890625 C 96.867188 80.9375 96.988281 79.964844 96.855469 78.992188 C 96.675781 77.65625 96.679688 76.285156 96.675781 74.933594 C 96.65625 71.296875 96.648438 67.664062 96.675781 64.023438 C 96.699219 60.125 96.769531 56.226562 96.828125 52.324219 C 96.816406 52.144531 96.859375 51.945312 96.808594 51.660156 M 50.421875 25.332031 C 50.492188 25.210938 50.550781 25.070312 50.640625 24.960938 C 51.734375 23.644531 52.859375 22.355469 53.929688 21.023438 C 54.65625 20.121094 55.332031 19.167969 56.019531 18.234375 C 56.601562 17.441406 57.152344 16.621094 57.738281 15.832031 C 58.082031 15.375 58.074219 15.257812 57.558594 14.972656 C 57.457031 14.914062 57.347656 14.863281 57.238281 14.820312 C 55.996094 14.246094 54.753906 13.679688 53.511719 13.105469 C 52.421875 12.601562 51.335938 12.101562 50.242188 11.605469 C 49.695312 11.351562 49.191406 11.351562 48.695312 11.777344 C 48.367188 12.0625 47.949219 12.234375 47.597656 12.488281 C 46.574219 13.214844 45.550781 13.949219 44.550781 14.710938 C 43.675781 15.378906 42.882812 16.160156 41.984375 16.785156 C 40.160156 18.046875 38.546875 19.546875 36.890625 20.996094 C 35.359375 22.339844 33.9375 23.800781 32.488281 25.222656 C 31.980469 25.71875 31.554688 26.308594 31.046875 26.804688 C 29.324219 28.503906 27.566406 30.171875 25.839844 31.878906 C 25.152344 32.5625 24.515625 33.304688 23.851562 34.011719 C 23.097656 34.816406 22.351562 35.625 21.59375 36.429688 C 20.53125 37.550781 19.460938 38.65625 18.40625 39.777344 C 17.757812 40.46875 17.105469 41.15625 16.480469 41.867188 C 15.464844 43.019531 14.449219 44.1875 13.457031 45.367188 C 12.808594 46.132812 12.265625 46.976562 11.828125 47.878906 C 11.4375 48.675781 11.0625 49.484375 10.707031 50.292969 C 10.484375 50.824219 10.289062 51.371094 10.121094 51.917969 C 10.085938 52.039062 9.941406 52.347656 10.328125 52.367188 C 11.390625 52.421875 12.441406 52.625 13.484375 52.828125 C 14.527344 53.027344 15.59375 53.085938 16.628906 53.324219 C 17.699219 53.566406 18.800781 53.535156 19.867188 53.765625 C 20.183594 53.839844 20.519531 53.824219 20.847656 53.84375 C 21.195312 53.863281 21.652344 54.03125 21.871094 53.871094 C 22.332031 53.535156 22.359375 54.191406 22.726562 54.113281 C 23.144531 54.03125 23.613281 54.171875 24.050781 54.257812 C 24.746094 54.390625 25.429688 54.578125 26.117188 54.703125 C 27.082031 54.882812 28.066406 54.984375 29.027344 55.199219 C 29.992188 55.402344 30.933594 55.777344 31.902344 55.9375 C 33.546875 56.203125 35.101562 56.757812 36.710938 57.128906 C 38.148438 57.464844 39.558594 57.898438 40.972656 58.296875 C 42.523438 58.742188 44.089844 59.167969 45.625 59.65625 C 48.074219 60.441406 50.519531 61.214844 52.914062 62.167969 C 54.496094 62.800781 56.078125 63.417969 57.609375 64.171875 C 59.75 65.222656 61.859375 66.324219 63.96875 67.414062 C 64.910156 67.898438 65.855469 68.375 66.78125 68.894531 C 68.703125 69.972656 70.605469 71.058594 72.511719 72.167969 C 73.414062 72.691406 74.308594 73.230469 75.175781 73.8125 C 76.683594 74.816406 78.183594 75.847656 79.65625 76.898438 C 80.429688 77.445312 81.164062 78.050781 81.882812 78.65625 C 82.71875 79.351562 83.523438 80.085938 84.34375 80.800781 C 85.578125 81.882812 86.859375 82.929688 88.050781 84.0625 C 89.980469 85.90625 91.828125 87.835938 93.566406 89.867188 C 93.628906 89.945312 93.746094 89.976562 93.835938 90.027344 C 93.828125 89.90625 93.875 89.746094 93.808594 89.667969 C 93.332031 89.101562 93.070312 88.417969 92.710938 87.785156 C 91.820312 86.226562 90.886719 84.695312 89.96875 83.160156 C 89.332031 82.097656 88.691406 81.035156 88.042969 79.988281 C 87.296875 78.792969 86.484375 77.632812 85.769531 76.414062 C 84.703125 74.589844 83.433594 72.910156 82.210938 71.195312 C 81.535156 70.253906 80.859375 69.308594 80.15625 68.386719 C 79.339844 67.316406 78.492188 66.265625 77.648438 65.222656 C 77.105469 64.558594 76.539062 63.921875 76 63.257812 C 75.222656 62.285156 74.46875 61.292969 73.683594 60.324219 C 73.128906 59.644531 72.550781 58.980469 71.976562 58.304688 C 71.082031 57.246094 70.214844 56.164062 69.273438 55.144531 C 68.289062 54.082031 67.226562 53.085938 66.203125 52.054688 C 66.074219 51.925781 65.960938 51.78125 65.816406 51.671875 C 64.753906 50.859375 63.707031 50.023438 62.613281 49.257812 C 61.394531 48.398438 60.179688 47.523438 58.878906 46.808594 C 57.644531 46.125 56.316406 45.597656 55.003906 45.089844 C 54.246094 44.792969 53.425781 44.625 52.621094 44.457031 C 51.683594 44.261719 50.730469 44.039062 49.785156 44.007812 C 48.433594 43.960938 47.074219 44.042969 45.730469 44.152344 C 44.929688 44.21875 44.140625 44.429688 43.355469 44.613281 C 42.550781 44.796875 41.765625 45.03125 40.964844 45.222656 C 40.632812 45.308594 40.285156 45.351562 39.941406 45.378906 C 39.667969 45.398438 39.523438 45.222656 39.550781 44.945312 C 39.5625 44.777344 39.578125 44.59375 39.640625 44.4375 C 40.308594 42.871094 40.972656 41.304688 41.679688 39.753906 C 42.015625 39.007812 42.433594 38.296875 42.820312 37.574219 C 43.445312 36.402344 44.042969 35.21875 44.710938 34.078125 C 45.277344 33.109375 45.980469 32.222656 46.546875 31.25 C 47.699219 29.21875 48.988281 27.292969 50.421875 25.332031 M 95.644531 95.523438 C 96.019531 95.71875 96.398438 95.917969 96.769531 96.109375 C 96.578125 95.683594 96.457031 95.203125 96.179688 94.835938 C 95.140625 93.4375 94.085938 92.050781 92.992188 90.703125 C 92.363281 89.933594 91.667969 89.210938 90.957031 88.507812 C 89.015625 86.582031 87.046875 84.679688 85.082031 82.78125 C 84.644531 82.355469 84.1875 81.957031 83.71875 81.570312 C 82.636719 80.679688 81.554688 79.789062 80.453125 78.925781 C 79.480469 78.160156 78.511719 77.386719 77.488281 76.683594 C 76.101562 75.726562 74.695312 74.796875 73.265625 73.921875 C 71.570312 72.882812 69.847656 71.902344 68.128906 70.917969 C 67.355469 70.472656 66.550781 70.09375 65.765625 69.667969 C 63.964844 68.6875 62.1875 67.660156 60.371094 66.71875 C 58.777344 65.894531 57.140625 65.132812 55.5 64.390625 C 54.230469 63.824219 52.945312 63.289062 51.636719 62.820312 C 49.828125 62.167969 48 61.574219 46.179688 60.96875 C 45.015625 60.582031 43.851562 60.191406 42.671875 59.855469 C 41.230469 59.445312 39.769531 59.09375 38.320312 58.707031 C 37.21875 58.417969 36.132812 58.109375 35.03125 57.824219 C 33.691406 57.484375 32.347656 57.148438 31.003906 56.839844 C 29.652344 56.53125 28.292969 56.246094 26.933594 55.953125 C 26.246094 55.804688 25.558594 55.640625 24.855469 55.519531 C 24.078125 55.382812 23.292969 55.289062 22.507812 55.171875 C 22.183594 55.125 21.914062 55.210938 21.703125 55.488281 C 21.425781 55.847656 21.140625 56.203125 20.820312 56.523438 C 19.378906 57.980469 17.925781 59.429688 16.476562 60.878906 C 16.328125 61.027344 16.179688 61.171875 16.039062 61.324219 C 15.503906 61.90625 14.996094 62.515625 14.433594 63.070312 C 13.617188 63.882812 12.753906 64.65625 11.925781 65.449219 C 11.867188 65.5 11.859375 65.621094 11.859375 65.710938 C 11.859375 65.730469 11.988281 65.757812 12.058594 65.769531 C 12.769531 65.875 13.488281 65.9375 14.183594 66.09375 C 15.226562 66.316406 16.25 66.632812 17.285156 66.851562 C 18.890625 67.195312 20.503906 67.464844 22.113281 67.800781 C 23.496094 68.089844 24.867188 68.40625 26.238281 68.734375 C 27.347656 69 28.453125 69.277344 29.554688 69.570312 C 31.003906 69.957031 32.445312 70.363281 33.886719 70.757812 C 35.308594 71.148438 36.730469 71.535156 38.148438 71.9375 C 39.101562 72.207031 40.039062 72.503906 40.984375 72.78125 C 42.375 73.179688 43.777344 73.554688 45.164062 73.980469 C 46.289062 74.328125 47.390625 74.746094 48.503906 75.121094 C 50.511719 75.789062 52.519531 76.433594 54.527344 77.117188 C 55.867188 77.574219 57.179688 78.109375 58.53125 78.539062 C 60.636719 79.21875 62.65625 80.101562 64.710938 80.917969 C 65.667969 81.296875 66.601562 81.742188 67.554688 82.128906 C 69.222656 82.800781 70.910156 83.429688 72.570312 84.113281 C 74.03125 84.714844 75.480469 85.351562 76.933594 85.980469 C 78.761719 86.773438 80.589844 87.5625 82.40625 88.371094 C 83.261719 88.753906 84.058594 89.289062 84.933594 89.597656 C 86.445312 90.125 87.777344 91 89.1875 91.730469 C 90.625 92.46875 92.007812 93.320312 93.40625 94.140625 C 94.117188 94.550781 94.839844 95.003906 95.644531 95.523438 M 117.199219 85.789062 C 116.207031 86.464844 115.210938 87.136719 114.234375 87.832031 C 113.125 88.617188 112.039062 89.429688 110.945312 90.226562 C 110.105469 90.839844 109.269531 91.453125 108.441406 92.070312 C 108.375 92.121094 108.363281 92.246094 108.324219 92.328125 C 108.394531 92.308594 108.472656 92.289062 108.542969 92.265625 C 110.449219 91.535156 112.335938 90.761719 114.253906 90.078125 C 115.859375 89.507812 117.496094 89.023438 119.132812 88.515625 C 120.992188 87.933594 122.859375 87.367188 124.722656 86.800781 C 125.734375 86.492188 126.746094 86.15625 127.761719 85.871094 C 129.203125 85.472656 130.664062 85.125 132.113281 84.726562 C 133.484375 84.34375 134.84375 83.914062 136.214844 83.535156 C 138.171875 83 140.140625 82.496094 142.101562 81.96875 C 143.25 81.664062 144.386719 81.34375 145.527344 81.035156 C 146.691406 80.71875 147.855469 80.390625 149.035156 80.105469 C 150.007812 79.867188 151.003906 79.746094 151.964844 79.460938 C 153.667969 78.964844 155.40625 78.628906 157.132812 78.226562 C 158.367188 77.933594 159.617188 77.714844 160.851562 77.425781 C 162.140625 77.121094 163.445312 76.949219 164.738281 76.683594 C 165.492188 76.53125 166.265625 76.492188 167.019531 76.355469 C 168.082031 76.167969 169.121094 75.925781 170.183594 75.746094 C 171.285156 75.558594 172.386719 75.414062 173.492188 75.273438 C 174.433594 75.152344 175.378906 75.042969 176.320312 74.964844 C 177.328125 74.886719 178.351562 74.796875 179.363281 74.816406 C 181.238281 74.855469 183.109375 74.675781 184.980469 74.9375 C 185.894531 75.066406 186.847656 74.964844 187.78125 74.957031 C 187.851562 74.957031 187.925781 74.933594 187.996094 74.914062 C 187.941406 74.84375 187.898438 74.757812 187.839844 74.695312 C 187.570312 74.417969 187.253906 74.171875 187.023438 73.863281 C 186.070312 72.574219 184.964844 71.433594 183.726562 70.414062 C 183.417969 70.164062 183.109375 69.90625 182.792969 69.660156 C 182.132812 69.140625 181.457031 68.632812 180.796875 68.097656 C 180.523438 67.871094 180.316406 67.546875 180.019531 67.363281 C 179.878906 67.273438 179.613281 66.9375 179.390625 67.324219 C 178.789062 67.324219 178.160156 67.195312 177.605469 67.355469 C 176.761719 67.59375 175.917969 67.40625 175.078125 67.605469 C 174.226562 67.804688 173.300781 67.671875 172.429688 67.820312 C 171.878906 67.914062 171.332031 67.898438 170.785156 67.953125 C 169.675781 68.082031 168.582031 68.277344 167.476562 68.40625 C 166.382812 68.535156 165.28125 68.617188 164.179688 68.722656 C 163.710938 68.765625 163.234375 68.804688 162.765625 68.882812 C 161.867188 69.023438 160.972656 69.199219 160.078125 69.339844 C 159.320312 69.460938 158.554688 69.519531 157.800781 69.660156 C 156.84375 69.84375 155.894531 70.066406 154.945312 70.28125 C 154.085938 70.46875 153.226562 70.636719 152.375 70.847656 C 151.320312 71.105469 150.269531 71.394531 149.222656 71.683594 C 147.617188 72.128906 146.003906 72.542969 144.417969 73.050781 C 140.828125 74.199219 137.257812 75.378906 133.753906 76.792969 C 131.996094 77.507812 130.242188 78.21875 128.535156 79.023438 C 126.53125 79.972656 124.609375 81.066406 122.65625 82.121094 C 121.910156 82.527344 121.183594 82.972656 120.484375 83.449219 C 119.394531 84.183594 118.339844 84.957031 117.199219 85.789062 M 14.234375 76.363281 C 14.96875 76.414062 15.695312 76.464844 16.429688 76.515625 C 17.214844 76.574219 17.996094 76.550781 18.78125 76.632812 C 20.054688 76.769531 21.335938 76.839844 22.617188 76.960938 C 23.5625 77.050781 24.503906 77.148438 25.441406 77.285156 C 26.484375 77.433594 27.535156 77.503906 28.582031 77.605469 C 29.078125 77.65625 29.582031 77.691406 30.074219 77.765625 C 31.023438 77.910156 31.96875 78.097656 32.921875 78.226562 C 33.546875 78.308594 34.195312 78.261719 34.792969 78.410156 C 35.25 78.519531 35.707031 78.445312 36.132812 78.558594 C 37.167969 78.84375 38.25 78.777344 39.292969 78.996094 C 39.90625 79.125 40.546875 79.109375 41.171875 79.171875 C 41.589844 79.21875 42.007812 79.269531 42.425781 79.339844 C 43.277344 79.480469 44.121094 79.648438 44.964844 79.789062 C 45.671875 79.90625 46.386719 79.984375 47.085938 80.113281 C 48.046875 80.292969 48.992188 80.519531 49.945312 80.726562 C 50.589844 80.867188 51.226562 81.015625 51.871094 81.148438 C 52.894531 81.375 53.917969 81.601562 54.941406 81.808594 C 55.800781 81.980469 56.683594 82.097656 57.535156 82.316406 C 59.433594 82.800781 61.320312 83.320312 63.203125 83.84375 C 64.972656 84.332031 66.738281 84.824219 68.496094 85.34375 C 69.691406 85.699219 70.882812 86.097656 72.066406 86.492188 C 73.753906 87.050781 75.445312 87.597656 77.113281 88.210938 C 78.554688 88.738281 79.945312 89.410156 81.394531 89.898438 C 83.375 90.574219 85.242188 91.511719 87.15625 92.347656 C 88.34375 92.871094 89.472656 93.515625 90.636719 94.09375 C 90.847656 94.195312 91.101562 94.230469 91.339844 94.273438 C 91.382812 94.28125 91.449219 94.214844 91.503906 94.191406 C 91.460938 94.171875 91.414062 94.152344 91.375 94.125 C 90.867188 93.855469 90.359375 93.578125 89.84375 93.308594 C 88.3125 92.496094 86.789062 91.679688 85.242188 90.890625 C 84.257812 90.390625 83.28125 89.875 82.25 89.46875 C 80.488281 88.773438 78.792969 87.921875 77.042969 87.1875 C 75.808594 86.671875 74.597656 86.074219 73.355469 85.5625 C 71.847656 84.945312 70.316406 84.382812 68.804688 83.773438 C 67.890625 83.40625 67.003906 82.984375 66.089844 82.625 C 64.152344 81.859375 62.207031 81.105469 60.25 80.363281 C 58.589844 79.738281 56.921875 79.125 55.242188 78.546875 C 52.222656 77.503906 49.199219 76.472656 46.167969 75.46875 C 44.636719 74.957031 43.089844 74.496094 41.546875 74.03125 C 40.277344 73.648438 38.996094 73.300781 37.714844 72.933594 C 36.441406 72.574219 35.167969 72.1875 33.886719 71.851562 C 32.574219 71.511719 31.234375 71.261719 29.929688 70.878906 C 27.847656 70.28125 25.761719 69.734375 23.640625 69.347656 C 22.203125 69.082031 20.78125 68.742188 19.351562 68.417969 C 18.050781 68.121094 16.757812 67.785156 15.457031 67.496094 C 15.246094 67.453125 14.890625 67.492188 14.789062 67.632812 C 13.925781 68.746094 13.128906 69.898438 12.277344 71.019531 C 11.410156 72.175781 10.503906 73.300781 9.613281 74.4375 C 9.304688 74.828125 8.976562 75.203125 8.707031 75.621094 C 8.539062 75.878906 8.019531 76.097656 8.269531 76.402344 C 8.421875 76.59375 8.953125 76.523438 9.304688 76.511719 C 10.902344 76.472656 12.492188 76.414062 14.234375 76.363281 M 32.445312 103.785156 C 32.527344 103.734375 32.605469 103.640625 32.6875 103.636719 C 33.945312 103.527344 35.191406 103.410156 36.449219 103.328125 C 37.234375 103.273438 38.011719 103.339844 38.796875 103.183594 C 39.539062 103.042969 40.304688 103.164062 41.070312 103.035156 C 41.9375 102.894531 42.839844 103.003906 43.726562 102.871094 C 44.601562 102.734375 45.492188 102.875 46.386719 102.722656 C 47.332031 102.558594 48.308594 102.714844 49.277344 102.558594 C 50.222656 102.40625 51.199219 102.515625 52.164062 102.417969 C 53.640625 102.269531 55.125 102.300781 56.613281 102.257812 C 59.722656 102.160156 62.835938 102.230469 65.953125 102.226562 C 66.164062 102.226562 66.378906 102.167969 66.597656 102.140625 C 66.363281 102.0625 66.140625 101.988281 65.90625 101.921875 C 65.8125 101.894531 65.703125 101.921875 65.597656 101.914062 C 64.96875 101.878906 64.34375 101.859375 63.714844 101.800781 C 62.414062 101.675781 61.101562 101.605469 59.800781 101.457031 C 59.125 101.382812 58.441406 101.40625 57.757812 101.328125 C 56.574219 101.195312 55.363281 101.179688 54.167969 101.175781 C 51.414062 101.15625 48.664062 101.050781 45.902344 101.273438 C 43.289062 101.476562 40.65625 101.195312 38.03125 101.433594 C 35.914062 101.625 33.777344 101.417969 31.640625 101.574219 C 29.40625 101.730469 27.152344 101.625 24.921875 101.914062 C 23.992188 102.039062 23.046875 102.03125 22.109375 102.082031 C 22.054688 102.082031 22.003906 102.078125 21.953125 102.082031 C 21.21875 102.1875 20.484375 102.308594 19.746094 102.386719 C 19.070312 102.464844 18.386719 102.488281 17.710938 102.546875 C 17.242188 102.585938 16.765625 102.632812 16.296875 102.703125 C 15.375 102.84375 14.453125 103.011719 13.535156 103.164062 C 12.828125 103.28125 12.117188 103.367188 11.410156 103.496094 C 10.6875 103.625 9.980469 103.796875 9.261719 103.945312 C 8.539062 104.09375 7.8125 104.195312 7.105469 104.378906 C 5.945312 104.671875 5.277344 104.183594 5.269531 102.984375 C 5.269531 102.574219 5.277344 102.152344 5.261719 101.742188 C 5.257812 101.644531 5.171875 101.546875 5.121094 101.457031 C 5.058594 101.542969 4.988281 101.625 4.933594 101.722656 C 4.730469 102.101562 4.535156 102.488281 4.335938 102.875 C 3.636719 104.222656 2.941406 105.570312 2.230469 106.910156 C 2.078125 107.207031 2.148438 107.40625 2.476562 107.371094 C 3.214844 107.296875 3.945312 107.167969 4.683594 107.070312 C 5.597656 106.953125 6.519531 106.890625 7.433594 106.75 C 8.625 106.566406 9.800781 106.308594 10.992188 106.140625 C 11.984375 106 12.980469 105.929688 13.972656 105.820312 C 14.441406 105.769531 14.929688 105.773438 15.382812 105.652344 C 16.109375 105.445312 16.855469 105.480469 17.597656 105.371094 C 18.289062 105.257812 19.003906 105.277344 19.707031 105.195312 C 20.8125 105.058594 21.90625 104.875 23.015625 104.738281 C 23.742188 104.652344 24.476562 104.628906 25.203125 104.578125 C 25.28125 104.570312 25.363281 104.589844 25.429688 104.5625 C 26.039062 104.324219 26.695312 104.371094 27.328125 104.273438 C 27.996094 104.175781 28.691406 104.214844 29.363281 104.09375 C 30.347656 103.90625 31.3125 103.769531 32.445312 103.785156 M 12.371094 80.101562 C 13.328125 79.90625 14.3125 80.007812 15.277344 79.808594 C 16.011719 79.65625 16.777344 79.808594 17.550781 79.660156 C 18.464844 79.488281 19.417969 79.511719 20.355469 79.480469 C 22.746094 79.390625 25.132812 79.605469 27.527344 79.347656 C 28.78125 79.210938 30.0625 79.308594 31.335938 79.328125 C 32.070312 79.339844 32.796875 79.429688 33.527344 79.46875 C 33.601562 79.476562 33.679688 79.410156 33.757812 79.378906 C 33.6875 79.359375 33.621094 79.332031 33.546875 79.320312 C 32.835938 79.21875 32.128906 79.054688 31.421875 79.023438 C 30.496094 78.980469 29.585938 78.855469 28.671875 78.707031 C 27.5 78.519531 26.316406 78.378906 25.132812 78.238281 C 24.117188 78.117188 23.097656 77.980469 22.074219 77.933594 C 20.890625 77.882812 19.726562 77.746094 18.546875 77.625 C 17.484375 77.507812 16.417969 77.476562 15.347656 77.464844 C 13.476562 77.445312 11.609375 77.476562 9.738281 77.574219 C 8.828125 77.625 8.132812 77.730469 7.65625 78.578125 C 7.15625 79.46875 6.570312 80.304688 6.023438 81.167969 C 5.996094 81.214844 5.992188 81.277344 5.976562 81.332031 C 6.03125 81.335938 6.09375 81.363281 6.125 81.34375 C 6.832031 80.910156 7.671875 80.929688 8.441406 80.75 C 9.671875 80.449219 10.945312 80.304688 12.371094 80.101562 M 172.84375 77.605469 C 174.511719 77.65625 176.171875 77.710938 177.839844 77.761719 C 177.914062 77.761719 178 77.742188 178.070312 77.761719 C 178.945312 78.019531 179.851562 77.941406 180.742188 78.0625 C 181.441406 78.152344 182.148438 78.148438 182.851562 78.238281 C 183.855469 78.367188 184.847656 78.59375 185.851562 78.683594 C 186.644531 78.753906 187.433594 78.8125 188.214844 79.003906 C 188.296875 79.023438 188.394531 78.960938 188.492188 78.933594 C 188.453125 78.84375 188.433594 78.738281 188.375 78.667969 C 188.238281 78.515625 188.058594 78.390625 187.941406 78.226562 C 187.492188 77.585938 187.066406 76.929688 186.609375 76.285156 C 186.535156 76.175781 186.371094 76.074219 186.242188 76.058594 C 185.59375 75.988281 184.9375 75.898438 184.289062 75.90625 C 181.847656 75.929688 179.402344 75.78125 176.960938 76.046875 C 176.210938 76.128906 175.4375 76.085938 174.695312 76.234375 C 174.246094 76.324219 173.800781 76.3125 173.359375 76.371094 C 172.457031 76.5 171.570312 76.683594 170.675781 76.828125 C 169.863281 76.949219 169.046875 77.019531 168.234375 77.148438 C 167.339844 77.285156 166.445312 77.464844 165.550781 77.605469 C 165.132812 77.675781 164.695312 77.652344 164.296875 77.773438 C 163.027344 78.167969 161.695312 78.210938 160.414062 78.539062 C 159.820312 78.6875 159.21875 78.785156 158.625 78.921875 C 158.507812 78.945312 158.414062 79.023438 158.304688 79.082031 C 158.414062 79.113281 158.527344 79.171875 158.632812 79.164062 C 159 79.125 159.378906 79.109375 159.730469 79.003906 C 160.589844 78.757812 161.457031 78.613281 162.339844 78.539062 C 162.835938 78.5 163.332031 78.445312 163.824219 78.371094 C 164.410156 78.289062 164.984375 78.160156 165.570312 78.082031 C 166.144531 78.003906 166.722656 78.011719 167.296875 77.914062 C 168.3125 77.742188 169.328125 77.625 170.359375 77.613281 C 171.136719 77.601562 171.910156 77.605469 172.84375 77.605469 M 178.449219 101.445312 C 177.929688 101.394531 177.40625 101.335938 176.878906 101.289062 C 176.152344 101.234375 175.390625 101.285156 174.691406 101.109375 C 173.648438 100.847656 172.585938 100.960938 171.542969 100.867188 C 169.398438 100.664062 167.230469 100.71875 165.074219 100.664062 C 164.972656 100.664062 164.828125 100.710938 164.773438 100.660156 C 164.371094 100.34375 163.921875 100.589844 163.503906 100.519531 C 163.433594 100.503906 163.347656 100.59375 163.273438 100.632812 C 163.355469 100.699219 163.433594 100.808594 163.515625 100.8125 C 164.226562 100.847656 164.933594 100.910156 165.632812 100.941406 C 167.257812 101.019531 168.871094 101.097656 170.488281 101.265625 C 171.480469 101.367188 172.476562 101.433594 173.46875 101.585938 C 174.453125 101.742188 175.457031 101.804688 176.449219 101.910156 C 176.890625 101.953125 177.34375 101.992188 177.785156 102.070312 C 178.605469 102.210938 179.414062 102.40625 180.238281 102.527344 C 181.203125 102.664062 182.1875 102.683594 183.140625 102.875 C 183.59375 102.964844 184.050781 102.921875 184.480469 103.015625 C 185.601562 103.261719 186.738281 103.339844 187.871094 103.46875 C 188.050781 103.488281 188.238281 103.441406 188.414062 103.480469 C 189.347656 103.679688 190.285156 103.796875 191.246094 103.785156 C 191.617188 103.777344 191.339844 103.636719 191.289062 103.539062 C 191.066406 103.113281 190.828125 102.695312 190.628906 102.257812 C 190.15625 101.234375 189.449219 100.316406 189.238281 99.171875 C 189.222656 99.09375 189.09375 99.035156 189.023438 98.964844 C 189 99.035156 188.960938 99.101562 188.960938 99.171875 C 188.953125 99.351562 188.945312 99.539062 188.960938 99.71875 C 189.003906 100.316406 189.074219 100.921875 189.109375 101.523438 C 189.128906 101.839844 188.753906 102.375 188.492188 102.378906 C 187.71875 102.394531 186.875 102.546875 186.191406 102.289062 C 185.15625 101.894531 184.101562 101.960938 183.058594 101.785156 C 182.164062 101.640625 181.238281 101.832031 180.324219 101.621094 C 179.769531 101.492188 179.183594 101.496094 178.449219 101.445312 M 121.324219 102.070312 C 121.511719 102.019531 121.691406 101.941406 121.886719 101.921875 C 122.511719 101.859375 123.132812 101.800781 123.765625 101.769531 C 124.5 101.730469 125.21875 101.742188 125.960938 101.640625 C 126.84375 101.515625 127.75 101.621094 128.636719 101.472656 C 129.113281 101.394531 129.621094 101.503906 130.113281 101.445312 C 130.535156 101.394531 130.972656 101.363281 131.398438 101.328125 C 133.035156 101.214844 134.667969 101.195312 136.304688 101.148438 C 136.691406 101.136719 137.082031 101.148438 137.46875 101.144531 C 137.511719 101.144531 137.585938 101.046875 137.585938 100.996094 C 137.585938 100.941406 137.519531 100.851562 137.46875 100.847656 C 137.3125 100.828125 137.160156 100.832031 137.003906 100.839844 C 135.652344 100.890625 134.300781 100.9375 132.949219 101 C 131.957031 101.046875 130.972656 100.949219 129.976562 101.125 C 129.113281 101.277344 128.207031 101.125 127.324219 101.296875 C 126.738281 101.414062 126.121094 101.386719 125.523438 101.425781 C 124.085938 101.523438 122.652344 101.605469 121.222656 101.773438 C 120.15625 101.898438 119.078125 101.980469 118.011719 102.097656 C 117.941406 102.101562 117.882812 102.199219 117.816406 102.257812 C 117.890625 102.308594 117.972656 102.40625 118.03125 102.394531 C 119.066406 102.167969 120.117188 102.0625 121.324219 102.070312 Z M 121.324219 102.070312 " fill-opacity="1" fill-rule="nonzero"/></g><path fill="#ffffff" d="M 107.390625 96.613281 C 109.101562 96.039062 110.730469 95.464844 112.367188 94.898438 C 113.820312 94.398438 115.269531 93.867188 116.738281 93.429688 C 118.199219 92.992188 119.679688 92.636719 121.152344 92.25 C 122.695312 91.84375 124.242188 91.433594 125.792969 91.054688 C 126.808594 90.800781 127.839844 90.621094 128.863281 90.375 C 130.402344 90.007812 131.953125 89.726562 133.476562 89.308594 C 134.585938 89.003906 135.742188 88.886719 136.871094 88.664062 C 138.035156 88.425781 139.195312 88.128906 140.363281 87.894531 C 141.304688 87.707031 142.257812 87.585938 143.203125 87.417969 C 144.285156 87.226562 145.367188 86.988281 146.449219 86.808594 C 147.234375 86.671875 148.023438 86.613281 148.808594 86.484375 C 149.632812 86.347656 150.445312 86.164062 151.261719 86.027344 C 151.757812 85.945312 152.257812 85.945312 152.753906 85.859375 C 153.753906 85.6875 154.769531 85.679688 155.761719 85.414062 C 156.238281 85.285156 156.746094 85.402344 157.253906 85.273438 C 157.878906 85.113281 158.554688 85.152344 159.203125 85.085938 C 159.546875 85.054688 159.886719 84.988281 160.226562 84.933594 C 160.542969 84.878906 160.898438 85.082031 161.179688 84.785156 C 161.207031 84.757812 161.285156 84.785156 161.335938 84.777344 C 162.144531 84.726562 162.96875 84.75 163.753906 84.597656 C 164.515625 84.457031 165.304688 84.601562 166.046875 84.308594 C 166.089844 84.289062 166.148438 84.308594 166.199219 84.308594 C 167.167969 84.253906 168.132812 84.210938 169.089844 84.144531 C 169.535156 84.113281 169.980469 84.042969 170.429688 83.996094 C 170.847656 83.953125 171.292969 84.105469 171.691406 83.84375 C 171.730469 83.816406 171.792969 83.84375 171.84375 83.835938 C 172.835938 83.785156 173.828125 83.757812 174.8125 83.675781 C 175.476562 83.617188 176.125 83.476562 176.789062 83.371094 C 176.917969 83.351562 177.066406 83.328125 177.175781 83.378906 C 177.335938 83.457031 177.457031 83.59375 177.601562 83.707031 C 177.472656 83.804688 177.34375 83.964844 177.199219 83.984375 C 176.578125 84.0625 175.945312 84.074219 175.320312 84.160156 C 174.046875 84.328125 172.765625 84.398438 171.484375 84.488281 C 170.28125 84.570312 169.085938 84.714844 167.878906 84.796875 C 166.675781 84.878906 165.480469 85.023438 164.277344 85.113281 C 163.3125 85.183594 162.332031 85.300781 161.375 85.429688 C 160.246094 85.578125 159.101562 85.59375 157.980469 85.851562 C 157.402344 85.988281 156.777344 85.949219 156.179688 86.027344 C 155.542969 86.109375 154.917969 86.238281 154.28125 86.332031 C 153.8125 86.402344 153.335938 86.421875 152.863281 86.492188 C 151.890625 86.640625 150.90625 86.714844 149.941406 86.941406 C 149.144531 87.121094 148.3125 87.140625 147.507812 87.277344 C 146.472656 87.453125 145.441406 87.671875 144.40625 87.855469 C 143.996094 87.933594 143.578125 87.972656 143.164062 88.050781 C 142.179688 88.238281 141.195312 88.4375 140.210938 88.628906 C 139.585938 88.753906 138.957031 88.855469 138.335938 88.984375 C 137.191406 89.222656 136.050781 89.488281 134.90625 89.726562 C 134.042969 89.90625 133.175781 90.054688 132.3125 90.226562 C 131.574219 90.375 130.832031 90.53125 130.09375 90.699219 C 129.21875 90.898438 128.339844 91.105469 127.472656 91.324219 C 125.636719 91.78125 123.816406 92.289062 121.96875 92.695312 C 120.335938 93.050781 118.726562 93.496094 117.128906 93.984375 C 114.742188 94.71875 112.351562 95.472656 110.003906 96.328125 C 108.425781 96.902344 106.84375 97.476562 105.261719 98.03125 C 104.359375 98.347656 103.476562 98.734375 102.601562 99.121094 C 102.230469 99.285156 101.902344 99.550781 101.539062 99.75 C 101.4375 99.808594 101.277344 99.835938 101.171875 99.796875 C 100.878906 99.671875 101.160156 99.429688 101.191406 99.402344 C 101.445312 99.175781 101.707031 98.945312 102.011719 98.808594 C 103.238281 98.269531 104.480469 97.761719 105.71875 97.246094 C 106.238281 97.019531 106.78125 96.824219 107.390625 96.613281 Z M 107.390625 96.613281 " fill-opacity="1" fill-rule="nonzero"/><path fill="#ffffff" d="M 45.601562 94.28125 C 48.375 94.28125 51.070312 94.261719 53.769531 94.289062 C 55.09375 94.300781 56.433594 94.300781 57.746094 94.46875 C 58.539062 94.570312 59.316406 94.539062 60.09375 94.589844 C 61.503906 94.6875 62.914062 94.785156 64.324219 94.90625 C 65.375 94.996094 66.421875 95.085938 67.464844 95.222656 C 68.507812 95.355469 69.550781 95.5 70.605469 95.539062 C 71.449219 95.574219 72.285156 95.71875 73.125 95.839844 C 74.121094 95.980469 75.117188 96.164062 76.121094 96.296875 C 76.722656 96.382812 77.324219 96.386719 77.925781 96.464844 C 78.484375 96.535156 79.039062 96.644531 79.589844 96.753906 C 79.976562 96.832031 80.371094 96.800781 80.769531 96.898438 C 81.632812 97.101562 82.550781 97.089844 83.433594 97.25 C 84.882812 97.515625 86.363281 97.585938 87.785156 98.019531 C 87.875 98.042969 88.015625 98.019531 88.070312 98.074219 C 88.152344 98.171875 88.242188 98.351562 88.203125 98.4375 C 88.160156 98.535156 87.960938 98.625 87.851562 98.609375 C 86.972656 98.480469 86.105469 98.328125 85.230469 98.179688 C 84.046875 97.972656 82.863281 97.742188 81.675781 97.558594 C 80.738281 97.417969 79.792969 97.367188 78.851562 97.238281 C 77.898438 97.109375 76.960938 96.921875 76.007812 96.78125 C 75.535156 96.710938 75.066406 96.671875 74.589844 96.621094 C 73.488281 96.511719 72.390625 96.445312 71.296875 96.296875 C 70.277344 96.164062 69.253906 96.066406 68.238281 95.976562 C 67.273438 95.886719 66.308594 95.75 65.335938 95.667969 C 63.976562 95.550781 62.617188 95.460938 61.265625 95.332031 C 60.585938 95.265625 59.894531 95.3125 59.226562 95.203125 C 58.105469 95.023438 56.972656 95.183594 55.875 95.023438 C 54.875 94.878906 53.890625 94.925781 52.898438 94.90625 C 49.734375 94.835938 46.554688 94.640625 43.398438 94.785156 C 40.097656 94.9375 36.796875 94.71875 33.507812 94.929688 C 31.761719 95.042969 30.011719 94.894531 28.28125 95.085938 C 27.023438 95.226562 25.761719 95.066406 24.535156 95.234375 C 23.589844 95.363281 22.640625 95.246094 21.722656 95.390625 C 20.910156 95.511719 20.085938 95.414062 19.296875 95.550781 C 18.664062 95.660156 18.027344 95.582031 17.414062 95.691406 C 16.238281 95.898438 15.039062 95.851562 13.867188 96.125 C 13.210938 96.273438 12.515625 96.238281 11.835938 96.296875 C 11.589844 96.316406 11.390625 96.207031 11.398438 95.996094 C 11.402344 95.878906 11.65625 95.699219 11.808594 95.683594 C 12.5625 95.601562 13.320312 95.59375 14.074219 95.511719 C 15.207031 95.382812 16.335938 95.207031 17.460938 95.054688 C 17.484375 95.046875 17.511719 95.054688 17.539062 95.054688 C 18.476562 95.003906 19.410156 94.9375 20.351562 94.898438 C 21.753906 94.839844 23.175781 94.898438 24.558594 94.710938 C 25.816406 94.539062 27.078125 94.738281 28.3125 94.570312 C 30.289062 94.304688 32.269531 94.578125 34.242188 94.417969 C 37.992188 94.113281 41.757812 94.378906 45.601562 94.28125 Z M 45.601562 94.28125 " fill-opacity="1" fill-rule="nonzero"/><path fill="#ffffff" d="M 54.777344 90.539062 C 53.550781 90.433594 52.398438 90.371094 51.253906 90.214844 C 50.210938 90.074219 49.148438 90.042969 48.117188 89.875 C 47.222656 89.726562 46.300781 89.964844 45.441406 89.609375 C 45.394531 89.589844 45.335938 89.609375 45.285156 89.609375 C 44.113281 89.558594 42.9375 89.570312 41.769531 89.4375 C 40.804688 89.320312 39.820312 89.421875 38.882812 89.269531 C 37.988281 89.121094 37.089844 89.269531 36.214844 89.132812 C 34.941406 88.933594 33.648438 89.132812 32.394531 88.957031 C 31.035156 88.773438 29.683594 88.886719 28.332031 88.835938 C 26.40625 88.765625 24.484375 88.625 22.566406 88.707031 C 20.511719 88.792969 18.457031 88.792969 16.40625 88.847656 C 15.175781 88.882812 13.945312 89.035156 12.722656 89.152344 C 12.460938 89.179688 12.195312 89.269531 11.933594 89.292969 C 11.847656 89.300781 11.699219 89.203125 11.6875 89.132812 C 11.667969 89.050781 11.746094 88.914062 11.816406 88.84375 C 11.898438 88.765625 12.023438 88.699219 12.136719 88.6875 C 12.683594 88.625 13.230469 88.566406 13.785156 88.527344 C 14.75 88.460938 15.730469 88.515625 16.675781 88.339844 C 17.621094 88.167969 18.554688 88.222656 19.496094 88.21875 C 22.996094 88.199219 26.496094 88.148438 30 88.238281 C 31.554688 88.277344 33.125 88.25 34.679688 88.398438 C 35.703125 88.5 36.726562 88.378906 37.730469 88.539062 C 38.648438 88.6875 39.570312 88.554688 40.464844 88.699219 C 41.230469 88.824219 41.984375 88.757812 42.738281 88.835938 C 44.171875 88.992188 45.605469 89.074219 47.042969 89.164062 C 48.167969 89.234375 49.28125 89.417969 50.414062 89.46875 C 51.542969 89.511719 52.667969 89.621094 53.789062 89.777344 C 54.726562 89.90625 55.679688 89.976562 56.613281 90.105469 C 57.714844 90.261719 58.839844 90.253906 59.929688 90.53125 C 60.457031 90.667969 61.023438 90.648438 61.570312 90.699219 C 62.257812 90.761719 62.941406 90.832031 63.621094 90.996094 C 64.054688 91.097656 64.503906 91.046875 64.960938 91.144531 C 65.863281 91.335938 66.796875 91.347656 67.703125 91.492188 C 68.84375 91.664062 69.96875 91.917969 71.101562 92.101562 C 71.914062 92.238281 72.730469 92.289062 73.542969 92.425781 C 74.578125 92.597656 75.609375 92.824219 76.636719 93.019531 C 77.023438 93.089844 77.417969 93.128906 77.808594 93.199219 C 78.625 93.347656 79.445312 93.519531 80.261719 93.664062 C 80.996094 93.785156 81.734375 93.863281 82.460938 93.984375 C 83.085938 94.085938 83.710938 94.214844 84.335938 94.34375 C 84.742188 94.429688 85.144531 94.519531 85.550781 94.601562 C 85.628906 94.617188 85.730469 94.570312 85.785156 94.609375 C 85.9375 94.726562 86.207031 94.886719 86.195312 95.003906 C 86.167969 95.203125 85.925781 95.265625 85.695312 95.226562 C 85.011719 95.113281 84.328125 95.023438 83.652344 94.894531 C 82.933594 94.757812 82.222656 94.589844 81.503906 94.449219 C 80.449219 94.234375 79.398438 94.015625 78.335938 93.828125 C 77.609375 93.699219 76.863281 93.636719 76.136719 93.507812 C 75.054688 93.320312 73.972656 93.082031 72.890625 92.894531 C 72.113281 92.761719 71.316406 92.703125 70.527344 92.574219 C 69.34375 92.378906 68.160156 92.15625 66.976562 91.953125 C 66.53125 91.882812 66.089844 91.84375 65.636719 91.792969 C 64.644531 91.691406 63.640625 91.625 62.65625 91.472656 C 61.375 91.273438 60.09375 91.089844 58.800781 91.007812 C 57.855469 90.941406 56.917969 90.8125 55.976562 90.703125 C 55.597656 90.652344 55.230469 90.589844 54.777344 90.539062 Z M 54.777344 90.539062 " fill-opacity="1" fill-rule="nonzero"/><path fill="#ffffff" d="M 14.9375 86.019531 C 13.535156 86.074219 12.195312 86.054688 10.882812 86.207031 C 10.199219 86.292969 9.523438 86.304688 8.84375 86.332031 C 8.6875 86.335938 8.546875 86.355469 8.546875 86.105469 C 8.546875 85.878906 8.648438 85.867188 8.824219 85.859375 C 9.609375 85.816406 10.40625 85.847656 11.164062 85.6875 C 12.164062 85.480469 13.15625 85.660156 14.140625 85.539062 C 16.683594 85.226562 19.230469 85.441406 21.78125 85.402344 C 24.347656 85.355469 26.914062 85.304688 29.476562 85.429688 C 30.964844 85.5 32.449219 85.441406 33.925781 85.589844 C 34.761719 85.671875 35.597656 85.652344 36.429688 85.710938 C 37.839844 85.808594 39.246094 85.90625 40.65625 86.027344 C 41.679688 86.109375 42.699219 86.214844 43.714844 86.34375 C 44.769531 86.476562 45.8125 86.660156 46.867188 86.800781 C 47.46875 86.878906 48.074219 86.890625 48.671875 86.96875 C 49.230469 87.039062 49.777344 87.167969 50.339844 87.265625 C 50.757812 87.335938 51.175781 87.378906 51.59375 87.433594 C 52.507812 87.542969 53.425781 87.613281 54.339844 87.753906 C 55.53125 87.933594 56.710938 88.179688 57.894531 88.367188 C 58.757812 88.5 59.625 88.558594 60.488281 88.6875 C 61.261719 88.8125 62.019531 88.996094 62.792969 89.132812 C 63.230469 89.210938 63.679688 89.230469 64.125 89.308594 C 64.921875 89.441406 65.714844 89.601562 66.511719 89.738281 C 66.949219 89.816406 67.394531 89.847656 67.839844 89.933594 C 68.847656 90.117188 69.851562 90.324219 70.863281 90.511719 C 71.539062 90.640625 72.222656 90.738281 72.898438 90.867188 C 73.832031 91.046875 74.757812 91.265625 75.691406 91.445312 C 76.394531 91.582031 77.101562 91.683594 77.800781 91.800781 C 77.878906 91.8125 77.976562 91.773438 78.035156 91.808594 C 78.226562 91.917969 78.402344 92.046875 78.585938 92.167969 C 78.40625 92.25 78.222656 92.417969 78.039062 92.414062 C 77.570312 92.394531 77.101562 92.320312 76.636719 92.238281 C 75.917969 92.109375 75.203125 91.949219 74.488281 91.800781 C 73.246094 91.542969 72.003906 91.277344 70.761719 91.035156 C 70.085938 90.90625 69.394531 90.828125 68.714844 90.703125 C 67.683594 90.511719 66.65625 90.285156 65.617188 90.097656 C 64.917969 89.96875 64.203125 89.886719 63.492188 89.769531 C 62.574219 89.621094 61.652344 89.449219 60.734375 89.308594 C 59.921875 89.183594 59.105469 89.113281 58.292969 88.984375 C 57.445312 88.847656 56.605469 88.667969 55.765625 88.527344 C 55.34375 88.457031 54.925781 88.417969 54.507812 88.367188 C 53.226562 88.210938 51.941406 88.058594 50.660156 87.894531 C 49.480469 87.746094 48.296875 87.613281 47.121094 87.417969 C 46.230469 87.269531 45.34375 87.195312 44.449219 87.097656 C 43.457031 86.988281 42.460938 86.878906 41.46875 86.789062 C 40.1875 86.664062 38.90625 86.582031 37.632812 86.457031 C 36.898438 86.386719 36.160156 86.453125 35.4375 86.332031 C 34.164062 86.117188 32.871094 86.332031 31.613281 86.15625 C 30.28125 85.976562 28.957031 86.046875 27.628906 86.039062 C 23.414062 86 19.210938 86.019531 14.9375 86.019531 Z M 14.9375 86.019531 " fill-opacity="1" fill-rule="nonzero"/><path fill="#ffffff" d="M 147.554688 92.25 C 149.222656 92.078125 150.8125 92.027344 152.402344 91.902344 C 153.238281 91.839844 154.082031 91.902344 154.90625 91.773438 C 156.179688 91.574219 157.472656 91.773438 158.726562 91.601562 C 160.085938 91.414062 161.4375 91.492188 162.789062 91.484375 C 167.769531 91.457031 172.746094 91.476562 177.726562 91.472656 C 178.546875 91.472656 179.351562 91.355469 180.121094 91.058594 C 180.246094 91.015625 180.398438 91.066406 180.542969 91.078125 C 180.507812 91.21875 180.515625 91.382812 180.445312 91.496094 C 180.179688 91.910156 179.699219 91.890625 179.3125 91.929688 C 176.640625 92.210938 173.957031 92.21875 171.292969 92.058594 C 169.15625 91.929688 167.019531 91.898438 164.902344 91.988281 C 162.820312 92.078125 160.734375 91.972656 158.664062 92.140625 C 157.539062 92.230469 156.410156 92.128906 155.304688 92.285156 C 154.382812 92.414062 153.464844 92.296875 152.566406 92.445312 C 151.777344 92.574219 150.992188 92.488281 150.21875 92.585938 C 148.96875 92.734375 147.714844 92.84375 146.460938 92.894531 C 145.410156 92.941406 144.367188 93.089844 143.320312 93.199219 C 142.371094 93.296875 141.433594 93.40625 140.492188 93.507812 C 139.632812 93.605469 138.761719 93.695312 137.898438 93.824219 C 137.023438 93.953125 136.160156 94.140625 135.292969 94.28125 C 134.847656 94.351562 134.40625 94.378906 133.960938 94.441406 C 133.007812 94.578125 132.050781 94.621094 131.117188 94.894531 C 130.664062 95.023438 130.175781 94.988281 129.707031 95.066406 C 128.882812 95.195312 128.058594 95.3125 127.246094 95.511719 C 126.558594 95.683594 125.832031 95.710938 125.125 95.847656 C 124.121094 96.035156 123.121094 96.324219 122.109375 96.4375 C 121.441406 96.515625 120.792969 96.644531 120.140625 96.78125 C 118.710938 97.082031 117.289062 97.398438 115.867188 97.734375 C 115.402344 97.84375 114.960938 98.042969 114.496094 98.164062 C 114.378906 98.199219 114.234375 98.101562 114.097656 98.070312 C 114.179688 97.945312 114.234375 97.785156 114.34375 97.707031 C 114.542969 97.578125 114.761719 97.457031 114.992188 97.40625 C 116.285156 97.082031 117.585938 96.78125 118.878906 96.464844 C 119.703125 96.265625 120.515625 96.015625 121.34375 95.851562 C 122.363281 95.660156 123.398438 95.550781 124.414062 95.371094 C 125.109375 95.246094 125.785156 95.035156 126.480469 94.917969 C 127.285156 94.785156 128.101562 94.707031 128.921875 94.597656 C 129.65625 94.5 130.394531 94.402344 131.121094 94.28125 C 131.605469 94.203125 132.066406 94.042969 132.550781 93.976562 C 133.832031 93.804688 135.117188 93.6875 136.398438 93.496094 C 137.65625 93.308594 138.902344 93.09375 140.171875 93.011719 C 141.058594 92.945312 141.949219 92.792969 142.84375 92.707031 C 143.96875 92.597656 145.082031 92.425781 146.214844 92.414062 C 146.632812 92.394531 147.050781 92.304688 147.554688 92.25 Z M 147.554688 92.25 " fill-opacity="1" fill-rule="nonzero"/><path fill="#ffffff" d="M 134.984375 97.277344 C 134.855469 97.339844 134.757812 97.386719 134.667969 97.394531 C 133.574219 97.449219 132.480469 97.476562 131.386719 97.558594 C 130.3125 97.636719 129.234375 97.734375 128.167969 97.875 C 127.371094 97.984375 126.585938 98.183594 125.792969 98.328125 C 125.671875 98.347656 125.503906 98.269531 125.394531 98.183594 C 125.257812 98.082031 125.199219 97.933594 125.453125 97.871094 C 125.824219 97.765625 126.191406 97.632812 126.570312 97.566406 C 127.035156 97.484375 127.523438 97.496094 127.980469 97.394531 C 129.152344 97.140625 130.363281 97.238281 131.527344 96.933594 C 131.578125 96.921875 131.628906 96.933594 131.683594 96.933594 C 132.699219 96.882812 133.714844 96.871094 134.726562 96.773438 C 136.523438 96.601562 138.324219 96.542969 140.121094 96.425781 C 140.957031 96.375 141.800781 96.40625 142.625 96.304688 C 144 96.128906 145.398438 96.285156 146.757812 96.125 C 148.042969 95.96875 149.316406 96.109375 150.585938 95.996094 C 153.390625 95.75 156.203125 95.996094 159.003906 95.808594 C 160.882812 95.679688 162.757812 95.640625 164.625 95.722656 C 167.71875 95.859375 170.808594 95.738281 173.898438 95.890625 C 175.308594 95.960938 176.722656 95.851562 178.113281 96.035156 C 179.371094 96.195312 180.617188 96.097656 181.867188 96.167969 C 182.046875 96.179688 182.226562 96.296875 182.402344 96.367188 C 182.214844 96.503906 182.023438 96.769531 181.839844 96.761719 C 180.902344 96.722656 179.949219 96.949219 179.023438 96.632812 C 178.835938 96.566406 178.609375 96.625 178.402344 96.625 C 175.417969 96.574219 172.425781 96.632812 169.445312 96.445312 C 165.46875 96.199219 161.496094 96.285156 157.523438 96.367188 C 155.34375 96.414062 153.148438 96.304688 150.976562 96.503906 C 149.570312 96.632812 148.152344 96.476562 146.761719 96.652344 C 145.585938 96.800781 144.402344 96.640625 143.25 96.8125 C 142.226562 96.96875 141.203125 96.804688 140.199219 96.960938 C 139.277344 97.101562 138.355469 96.972656 137.460938 97.121094 C 136.636719 97.246094 135.832031 97.199219 134.984375 97.277344 Z M 134.984375 97.277344 " fill-opacity="1" fill-rule="nonzero"/><path fill="#ffffff" d="M 161.25 87.890625 C 160.9375 87.941406 160.699219 88.023438 160.460938 88.039062 C 159.460938 88.089844 158.464844 88.167969 157.472656 88.347656 C 156.855469 88.457031 156.210938 88.40625 155.601562 88.527344 C 154.757812 88.699219 153.886719 88.675781 153.0625 88.964844 C 152.652344 89.113281 152.175781 89.074219 151.730469 89.140625 C 150.617188 89.300781 149.503906 89.453125 148.402344 89.746094 C 147.714844 89.925781 146.980469 89.9375 146.28125 90.078125 C 145.011719 90.335938 143.726562 90.492188 142.46875 90.832031 C 141.574219 91.078125 140.628906 91.128906 139.714844 91.324219 C 138.40625 91.601562 137.113281 91.933594 135.8125 92.230469 C 135.480469 92.308594 135.136719 92.359375 134.796875 92.398438 C 134.667969 92.414062 134.46875 92.484375 134.476562 92.210938 C 134.476562 92.039062 134.496094 91.96875 134.714844 91.921875 C 135.230469 91.8125 135.722656 91.585938 136.238281 91.476562 C 137.765625 91.148438 139.304688 90.859375 140.828125 90.53125 C 141.96875 90.285156 143.101562 89.988281 144.246094 89.765625 C 145 89.617188 145.769531 89.570312 146.523438 89.4375 C 147.21875 89.3125 147.894531 89.105469 148.589844 88.984375 C 149.316406 88.847656 150.070312 88.816406 150.792969 88.65625 C 151.601562 88.46875 152.453125 88.5 153.25 88.21875 C 153.609375 88.089844 154.03125 88.1875 154.433594 88.070312 C 154.980469 87.914062 155.582031 87.960938 156.152344 87.882812 C 156.808594 87.800781 157.464844 87.671875 158.128906 87.578125 C 158.652344 87.507812 159.171875 87.457031 159.699219 87.425781 C 160.742188 87.359375 161.792969 87.386719 162.820312 87.246094 C 163.710938 87.121094 164.617188 87.230469 165.480469 87.082031 C 166.476562 86.910156 167.46875 87.046875 168.453125 86.957031 C 170.660156 86.753906 172.867188 86.839844 175.082031 86.789062 C 175.902344 86.769531 176.710938 86.585938 177.523438 86.496094 C 177.652344 86.484375 177.785156 86.570312 177.921875 86.601562 C 177.875 86.734375 177.871094 86.9375 177.78125 87 C 177.585938 87.128906 177.34375 87.246094 177.117188 87.257812 C 175.585938 87.328125 174.046875 87.378906 172.515625 87.417969 C 171.734375 87.4375 170.957031 87.40625 170.179688 87.425781 C 168.671875 87.464844 167.152344 87.445312 165.652344 87.613281 C 164.808594 87.707031 163.972656 87.625 163.148438 87.761719 C 162.527344 87.855469 161.933594 87.882812 161.25 87.890625 Z M 161.25 87.890625 " fill-opacity="1" fill-rule="nonzero"/><path fill="#ffffff" d="M 33.492188 91.199219 C 36.152344 91.164062 38.773438 91.164062 41.390625 91.164062 C 41.660156 91.164062 42.105469 91.066406 42.117188 91.382812 C 42.132812 91.714844 41.695312 91.621094 41.429688 91.625 C 39.898438 91.679688 38.359375 91.75 36.828125 91.78125 C 35.6875 91.808594 34.542969 91.714844 33.402344 91.800781 C 31.117188 91.960938 28.820312 91.839844 26.542969 91.980469 C 25.339844 92.058594 24.136719 91.960938 22.949219 92.121094 C 22.082031 92.238281 21.21875 92.175781 20.371094 92.265625 C 19.21875 92.386719 18.070312 92.507812 16.917969 92.578125 C 15.863281 92.652344 14.816406 92.882812 13.765625 93.023438 C 13.507812 93.058594 13.246094 93.042969 12.988281 93.019531 C 12.902344 93.011719 12.78125 92.910156 12.753906 92.824219 C 12.703125 92.65625 12.769531 92.574219 12.988281 92.546875 C 13.597656 92.476562 14.199219 92.320312 14.800781 92.25 C 15.949219 92.121094 17.113281 92.109375 18.246094 91.902344 C 18.855469 91.792969 19.460938 91.871094 20.046875 91.761719 C 20.988281 91.582031 21.941406 91.742188 22.859375 91.59375 C 23.9375 91.414062 25.003906 91.5625 26.066406 91.457031 C 28.453125 91.234375 30.847656 91.328125 33.238281 91.304688 C 33.328125 91.316406 33.390625 91.265625 33.492188 91.199219 Z M 33.492188 91.199219 " fill-opacity="1" fill-rule="nonzero"/><path fill="#ffffff" d="M 162.964844 82.121094 C 164.109375 82.070312 165.191406 82.117188 166.238281 81.941406 C 167.3125 81.761719 168.382812 81.917969 169.445312 81.808594 C 171.183594 81.625 172.933594 81.570312 174.664062 81.691406 C 176.359375 81.8125 178.042969 81.792969 179.730469 81.808594 C 180.046875 81.808594 180.359375 81.671875 180.675781 81.671875 C 180.84375 81.671875 181.011719 81.832031 181.171875 81.917969 C 181.035156 82.039062 180.914062 82.25 180.773438 82.265625 C 179.917969 82.347656 179.042969 82.503906 178.199219 82.414062 C 175.5 82.128906 172.796875 82.289062 170.09375 82.316406 C 168.851562 82.328125 167.589844 82.335938 166.355469 82.472656 C 165.621094 82.554688 164.882812 82.476562 164.167969 82.605469 C 162.945312 82.824219 161.683594 82.734375 160.464844 83.042969 C 159.9375 83.179688 159.367188 83.132812 158.824219 83.21875 C 158.050781 83.339844 157.292969 83.527344 156.519531 83.65625 C 155.246094 83.863281 154.003906 84.160156 152.78125 84.585938 C 152.683594 84.617188 152.535156 84.480469 152.40625 84.421875 C 152.476562 84.28125 152.511719 84.050781 152.621094 84.011719 C 153.140625 83.824219 153.667969 83.65625 154.210938 83.535156 C 155.179688 83.308594 156.160156 83.101562 157.136719 82.910156 C 157.976562 82.742188 158.816406 82.582031 159.667969 82.445312 C 160.15625 82.367188 160.660156 82.335938 161.15625 82.285156 C 161.734375 82.226562 162.308594 82.175781 162.964844 82.121094 Z M 162.964844 82.121094 " fill-opacity="1" fill-rule="nonzero"/><path fill="#ffffff" d="M 17.421875 83.527344 C 19.269531 83.476562 21.046875 83.527344 22.804688 83.339844 C 24.210938 83.1875 25.628906 83.367188 27.019531 83.191406 C 28.324219 83.023438 29.636719 83.199219 30.917969 83.03125 C 31.917969 82.894531 32.902344 82.953125 33.894531 82.914062 C 34.003906 82.910156 34.117188 83.023438 34.234375 83.082031 C 34.132812 83.179688 34.039062 83.339844 33.917969 83.367188 C 33.507812 83.449219 33.082031 83.515625 32.664062 83.527344 C 30.765625 83.59375 28.859375 83.527344 26.972656 83.726562 C 25.582031 83.867188 24.199219 83.703125 22.835938 83.867188 C 21.398438 84.050781 19.957031 83.875 18.542969 84.035156 C 17.671875 84.132812 16.808594 84.074219 15.960938 84.164062 C 14.472656 84.328125 12.988281 84.410156 11.5 84.492188 C 10.347656 84.558594 9.210938 84.789062 8.050781 84.785156 C 7.972656 84.785156 7.871094 84.769531 7.832031 84.816406 C 7.5625 85.097656 7.363281 84.867188 7.328125 84.675781 C 7.289062 84.417969 7.523438 84.332031 7.785156 84.3125 C 9.042969 84.222656 10.304688 84.152344 11.546875 83.996094 C 12.851562 83.835938 14.152344 83.707031 15.464844 83.6875 C 16.097656 83.667969 16.71875 83.578125 17.421875 83.527344 Z M 17.421875 83.527344 " fill-opacity="1" fill-rule="nonzero"/><g fill="#ffffff" fill-opacity="1"><g transform="translate(203.966575, 42.630839)"><g><path d="M 6.78125 -22.703125 L 6.78125 0 L 1.96875 0 L 1.96875 -22.703125 Z M 6.78125 -22.703125 "/></g></g></g><g fill="#ffffff" fill-opacity="1"><g transform="translate(212.7183, 42.630839)"><g><path d="M 20.96875 -22.703125 L 20.96875 0 L 16.8125 0 L 6.9375 -14.296875 L 6.78125 -14.296875 L 6.78125 0 L 1.96875 0 L 1.96875 -22.703125 L 6.1875 -22.703125 L 15.984375 -8.421875 L 16.1875 -8.421875 L 16.1875 -22.703125 Z M 20.96875 -22.703125 "/></g></g></g><g fill="#ffffff" fill-opacity="1"><g transform="translate(235.650034, 42.630839)"><g><path d="M 1.109375 -18.75 L 1.109375 -22.703125 L 19.75 -22.703125 L 19.75 -18.75 L 12.796875 -18.75 L 12.796875 0 L 8.0625 0 L 8.0625 -18.75 Z M 1.109375 -18.75 "/></g></g></g><g fill="#ffffff" fill-opacity="1"><g transform="translate(256.499084, 42.630839)"><g><path d="M 1.96875 0 L 1.96875 -22.703125 L 17.265625 -22.703125 L 17.265625 -18.75 L 6.78125 -18.75 L 6.78125 -13.34375 L 16.484375 -13.34375 L 16.484375 -9.375 L 6.78125 -9.375 L 6.78125 -3.953125 L 17.3125 -3.953125 L 17.3125 0 Z M 1.96875 0 "/></g></g></g><g fill="#ffffff" fill-opacity="1"><g transform="translate(275.608871, 42.630839)"><g><path d="M 1.96875 0 L 1.96875 -22.703125 L 6.78125 -22.703125 L 6.78125 -3.953125 L 16.5 -3.953125 L 16.5 0 Z M 1.96875 0 "/></g></g></g><g fill="#ffffff" fill-opacity="1"><g transform="translate(293.311724, 42.630839)"><g><path d="M 1.96875 0 L 1.96875 -22.703125 L 6.78125 -22.703125 L 6.78125 -3.953125 L 16.5 -3.953125 L 16.5 0 Z M 1.96875 0 "/></g></g></g><g fill="#ffffff" fill-opacity="1"><g transform="translate(311.014577, 42.630839)"><g><path d="M 1.96875 0 L 1.96875 -22.703125 L 17.265625 -22.703125 L 17.265625 -18.75 L 6.78125 -18.75 L 6.78125 -13.34375 L 16.484375 -13.34375 L 16.484375 -9.375 L 6.78125 -9.375 L 6.78125 -3.953125 L 17.3125 -3.953125 L 17.3125 0 Z M 1.96875 0 "/></g></g></g><g fill="#ffffff" fill-opacity="1"><g transform="translate(330.124364, 42.630839)"><g><path d="M 22 -14.75 L 17.15625 -14.75 C 16.96875 -16 16.429688 -16.976562 15.546875 -17.6875 C 14.671875 -18.40625 13.578125 -18.765625 12.265625 -18.765625 C 10.503906 -18.765625 9.09375 -18.117188 8.03125 -16.828125 C 6.96875 -15.546875 6.4375 -13.722656 6.4375 -11.359375 C 6.4375 -8.929688 6.96875 -7.085938 8.03125 -5.828125 C 9.101562 -4.566406 10.503906 -3.9375 12.234375 -3.9375 C 13.503906 -3.9375 14.582031 -4.269531 15.46875 -4.9375 C 16.363281 -5.601562 16.925781 -6.546875 17.15625 -7.765625 L 22 -7.734375 C 21.832031 -6.347656 21.335938 -5.039062 20.515625 -3.8125 C 19.703125 -2.582031 18.585938 -1.585938 17.171875 -0.828125 C 15.765625 -0.0664062 14.09375 0.3125 12.15625 0.3125 C 10.125 0.3125 8.3125 -0.144531 6.71875 -1.0625 C 5.125 -1.976562 3.867188 -3.304688 2.953125 -5.046875 C 2.035156 -6.785156 1.578125 -8.890625 1.578125 -11.359375 C 1.578125 -13.828125 2.039062 -15.929688 2.96875 -17.671875 C 3.90625 -19.410156 5.171875 -20.734375 6.765625 -21.640625 C 8.359375 -22.554688 10.15625 -23.015625 12.15625 -23.015625 C 13.90625 -23.015625 15.484375 -22.691406 16.890625 -22.046875 C 18.296875 -21.398438 19.445312 -20.460938 20.34375 -19.234375 C 21.25 -18.003906 21.800781 -16.507812 22 -14.75 Z M 22 -14.75 "/></g></g></g><g fill="#ffffff" fill-opacity="1"><g transform="translate(353.587854, 42.630839)"><g><path d="M 1.109375 -18.75 L 1.109375 -22.703125 L 19.75 -22.703125 L 19.75 -18.75 L 12.796875 -18.75 L 12.796875 0 L 8.0625 0 L 8.0625 -18.75 Z M 1.109375 -18.75 "/></g></g></g><g fill="#ffffff" fill-opacity="1"><g transform="translate(203.966575, 85.781583)"><g><path d="M 1.5 -20.265625 L 1.5 -22.703125 L 18.53125 -22.703125 L 18.53125 -20.265625 L 11.390625 -20.265625 L 11.390625 0 L 8.640625 0 L 8.640625 -20.265625 Z M 1.5 -20.265625 "/></g></g></g><g fill="#ffffff" fill-opacity="1"><g transform="translate(223.995831, 85.781583)"><g><path d="M 17.65625 -22.703125 L 20.40625 -22.703125 L 20.40625 -7.671875 C 20.40625 -5.972656 20 -4.519531 19.1875 -3.3125 C 18.382812 -2.101562 17.3125 -1.179688 15.96875 -0.546875 C 14.632812 0.0859375 13.171875 0.40625 11.578125 0.40625 C 9.972656 0.40625 8.503906 0.0859375 7.171875 -0.546875 C 5.835938 -1.179688 4.765625 -2.101562 3.953125 -3.3125 C 3.148438 -4.519531 2.75 -5.972656 2.75 -7.671875 L 2.75 -22.703125 L 5.5 -22.703125 L 5.5 -7.671875 C 5.5 -6.484375 5.78125 -5.484375 6.34375 -4.671875 C 6.90625 -3.859375 7.644531 -3.238281 8.5625 -2.8125 C 9.488281 -2.382812 10.492188 -2.171875 11.578125 -2.171875 C 12.648438 -2.171875 13.648438 -2.382812 14.578125 -2.8125 C 15.503906 -3.238281 16.25 -3.859375 16.8125 -4.671875 C 17.375 -5.484375 17.65625 -6.484375 17.65625 -7.671875 Z M 17.65625 -22.703125 "/></g></g></g><g fill="#ffffff" fill-opacity="1"><g transform="translate(247.126968, 85.781583)"><g><path d="M 1.5 -20.265625 L 1.5 -22.703125 L 18.53125 -22.703125 L 18.53125 -20.265625 L 11.390625 -20.265625 L 11.390625 0 L 8.640625 0 L 8.640625 -20.265625 Z M 1.5 -20.265625 "/></g></g></g><g fill="#ffffff" fill-opacity="1"><g transform="translate(267.156224, 85.781583)"><g><path d="M 21.90625 -11.359375 C 21.90625 -8.960938 21.472656 -6.890625 20.609375 -5.140625 C 19.742188 -3.398438 18.554688 -2.054688 17.046875 -1.109375 C 15.535156 -0.160156 13.816406 0.3125 11.890625 0.3125 C 9.953125 0.3125 8.226562 -0.160156 6.71875 -1.109375 C 5.207031 -2.054688 4.019531 -3.398438 3.15625 -5.140625 C 2.289062 -6.890625 1.859375 -8.960938 1.859375 -11.359375 C 1.859375 -13.742188 2.289062 -15.804688 3.15625 -17.546875 C 4.019531 -19.296875 5.207031 -20.644531 6.71875 -21.59375 C 8.226562 -22.539062 9.953125 -23.015625 11.890625 -23.015625 C 13.816406 -23.015625 15.535156 -22.539062 17.046875 -21.59375 C 18.554688 -20.644531 19.742188 -19.296875 20.609375 -17.546875 C 21.472656 -15.804688 21.90625 -13.742188 21.90625 -11.359375 Z M 19.25 -11.359375 C 19.25 -13.316406 18.921875 -14.972656 18.265625 -16.328125 C 17.609375 -17.679688 16.722656 -18.703125 15.609375 -19.390625 C 14.503906 -20.085938 13.265625 -20.4375 11.890625 -20.4375 C 10.515625 -20.4375 9.269531 -20.085938 8.15625 -19.390625 C 7.039062 -18.703125 6.15625 -17.679688 5.5 -16.328125 C 4.84375 -14.972656 4.515625 -13.316406 4.515625 -11.359375 C 4.515625 -9.390625 4.84375 -7.726562 5.5 -6.375 C 6.15625 -5.019531 7.039062 -3.992188 8.15625 -3.296875 C 9.269531 -2.609375 10.515625 -2.265625 11.890625 -2.265625 C 13.265625 -2.265625 14.503906 -2.609375 15.609375 -3.296875 C 16.722656 -3.992188 17.609375 -5.019531 18.265625 -6.375 C 18.921875 -7.726562 19.25 -9.390625 19.25 -11.359375 Z M 19.25 -11.359375 "/></g></g></g><g fill="#ffffff" fill-opacity="1"><g transform="translate(290.907752, 85.781583)"><g><path d="M 2.75 0 L 2.75 -22.703125 L 10.421875 -22.703125 C 12.191406 -22.703125 13.644531 -22.398438 14.78125 -21.796875 C 15.925781 -21.191406 16.769531 -20.363281 17.3125 -19.3125 C 17.863281 -18.269531 18.140625 -17.082031 18.140625 -15.75 C 18.140625 -14.238281 17.789062 -12.921875 17.09375 -11.796875 C 16.40625 -10.679688 15.335938 -9.875 13.890625 -9.375 L 19.03125 0 L 15.828125 0 L 11.046875 -8.875 C 10.859375 -8.875 10.664062 -8.875 10.46875 -8.875 L 5.5 -8.875 L 5.5 0 Z M 5.5 -11.359375 L 10.375 -11.359375 C 12.195312 -11.359375 13.492188 -11.75 14.265625 -12.53125 C 15.046875 -13.3125 15.4375 -14.382812 15.4375 -15.75 C 15.4375 -17.113281 15.046875 -18.207031 14.265625 -19.03125 C 13.484375 -19.851562 12.171875 -20.265625 10.328125 -20.265625 L 5.5 -20.265625 Z M 5.5 -11.359375 "/></g></g></g><g fill="#ffffff" fill-opacity="1"><g transform="translate(310.8484, 85.781583)"><g><path d="M 5.5 -22.703125 L 5.5 0 L 2.75 0 L 2.75 -22.703125 Z M 5.5 -22.703125 "/></g></g></g><g fill="#ffffff" fill-opacity="1"><g transform="translate(319.090527, 85.781583)"><g><path d="M 20.75 -22.703125 L 20.75 0 L 18.09375 0 L 5.71875 -17.828125 L 5.5 -17.828125 L 5.5 0 L 2.75 0 L 2.75 -22.703125 L 5.40625 -22.703125 L 17.828125 -4.828125 L 18.046875 -4.828125 L 18.046875 -22.703125 Z M 20.75 -22.703125 "/></g></g></g><g fill="#ffffff" fill-opacity="1"><g transform="translate(342.576176, 85.781583)"><g><path d="M 18.265625 -15.609375 C 17.785156 -17.097656 16.992188 -18.273438 15.890625 -19.140625 C 14.796875 -20.003906 13.429688 -20.4375 11.796875 -20.4375 C 10.453125 -20.4375 9.226562 -20.085938 8.125 -19.390625 C 7.019531 -18.703125 6.140625 -17.679688 5.484375 -16.328125 C 4.835938 -14.972656 4.515625 -13.316406 4.515625 -11.359375 C 4.515625 -9.390625 4.84375 -7.726562 5.5 -6.375 C 6.164062 -5.019531 7.054688 -3.992188 8.171875 -3.296875 C 9.296875 -2.609375 10.5625 -2.265625 11.96875 -2.265625 C 13.25 -2.265625 14.378906 -2.535156 15.359375 -3.078125 C 16.347656 -3.617188 17.125 -4.382812 17.6875 -5.375 C 18.25 -6.375 18.546875 -7.550781 18.578125 -8.90625 L 12.59375 -8.90625 L 12.59375 -11.359375 L 21.234375 -11.359375 L 21.234375 -8.90625 C 21.234375 -7.039062 20.835938 -5.414062 20.046875 -4.03125 C 19.253906 -2.65625 18.160156 -1.585938 16.765625 -0.828125 C 15.367188 -0.0664062 13.769531 0.3125 11.96875 0.3125 C 9.957031 0.3125 8.191406 -0.160156 6.671875 -1.109375 C 5.160156 -2.054688 3.976562 -3.398438 3.125 -5.140625 C 2.28125 -6.890625 1.859375 -8.960938 1.859375 -11.359375 C 1.859375 -13.742188 2.28125 -15.804688 3.125 -17.546875 C 3.976562 -19.296875 5.148438 -20.644531 6.640625 -21.59375 C 8.140625 -22.539062 9.859375 -23.015625 11.796875 -23.015625 C 13.390625 -23.015625 14.835938 -22.703125 16.140625 -22.078125 C 17.441406 -21.453125 18.523438 -20.582031 19.390625 -19.46875 C 20.253906 -18.351562 20.828125 -17.066406 21.109375 -15.609375 Z M 18.265625 -15.609375 "/></g></g></g></svg>